<?xml version="1.0" encoding="utf-8"?>
<!-- Generator: Adobe Illustrator 22.0.0, SVG Export Plug-In . SVG Version: 6.00 Build 0)  -->
<svg version="1.1" id="Layer_1" xmlns="http://www.w3.org/2000/svg" xmlns:xlink="http://www.w3.org/1999/xlink" x="0px" y="0px"
	 viewBox="0 0 595.3 841.9" style="enable-background:new 0 0 595.3 841.9;" xml:space="preserve">
<style type="text/css">
	.st0{fill:#FFFFFF;stroke:#231F20;stroke-width:2.1841;stroke-linecap:round;stroke-linejoin:round;}
	.st1{fill:#FFF100;stroke:#231F20;stroke-width:2.1841;stroke-linecap:round;stroke-linejoin:round;}
	.st2{fill:none;stroke:#231F20;stroke-width:2.1841;stroke-linecap:round;stroke-linejoin:round;}
	.st3{fill:#D1232A;stroke:#231F20;stroke-width:2.1841;stroke-linecap:round;stroke-linejoin:round;}
	.st4{fill:#3FAC49;stroke:#231F20;stroke-width:2.1841;stroke-linecap:round;stroke-linejoin:round;}
	.st5{fill:#231F20;}
	.st6{fill:#F6921E;stroke:#231F20;stroke-width:2.1841;stroke-linecap:round;stroke-linejoin:round;}
	.st7{fill:#FFDD00;stroke:#231F20;stroke-width:2.1841;stroke-linecap:round;stroke-linejoin:round;}
	.st8{fill:#F399C0;stroke:#231F20;stroke-width:2.1841;stroke-linecap:round;stroke-linejoin:round;}
	.st9{fill:none;stroke:#D1232A;stroke-width:2.1841;stroke-linecap:round;stroke-linejoin:round;}
	.st10{fill:#00B1EA;stroke:#231F20;stroke-width:2.1841;stroke-linecap:round;stroke-linejoin:round;}
	.st11{fill:#00ADEE;stroke:#231F20;stroke-width:2.1841;stroke-linecap:round;stroke-linejoin:round;}
	.st12{fill:none;stroke:#D1232A;stroke-width:3.4947;stroke-linecap:round;stroke-linejoin:round;}
	.st13{fill:#231F20;stroke:#231F20;stroke-width:2.1841;stroke-linecap:round;stroke-linejoin:round;}
	.st14{fill:none;stroke:#25408E;stroke-width:2.1841;stroke-linecap:round;stroke-linejoin:round;}
	.st15{fill:#231F20;stroke:#231F20;stroke-width:2.1841;}
	.st16{fill:#F6921E;}
	.st17{fill:#FFFFFF;stroke:#231F20;stroke-width:1.3205;stroke-linecap:round;stroke-linejoin:round;}
	.st18{fill:#231F20;stroke:#231F20;stroke-width:1.3205;stroke-linecap:round;stroke-linejoin:round;}
	.st19{fill:#F6921E;stroke:#231F20;stroke-width:1.3205;stroke-linecap:round;stroke-linejoin:round;}
	.st20{fill:#FFDD00;stroke:#231F20;stroke-width:1.3205;stroke-linecap:round;stroke-linejoin:round;}
	.st21{fill:none;stroke:#231F20;stroke-width:1.3205;stroke-linecap:round;stroke-linejoin:round;}
	.st22{fill:#00B1EA;stroke:#231F20;stroke-width:1.3205;stroke-linecap:round;stroke-linejoin:round;}
	.st23{fill:none;stroke:#25408E;stroke-width:1.3205;stroke-linecap:round;stroke-linejoin:round;}
	.st24{fill:#231F20;stroke:#231F20;stroke-width:1.3205;}
	.st25{fill:#D1232A;stroke:#231F20;stroke-width:1.3205;stroke-linecap:round;stroke-linejoin:round;}
	.st26{fill:#FFFFFF;stroke:#231F20;stroke-width:3.2334;stroke-linecap:round;stroke-linejoin:round;}
	.st27{fill:#FFDD00;stroke:#231F20;stroke-width:3.2334;stroke-linecap:round;stroke-linejoin:round;}
	.st28{fill:none;stroke:#231F20;stroke-width:3.2334;stroke-linecap:round;stroke-linejoin:round;}
	.st29{fill:#D1232A;stroke:#231F20;stroke-width:3.2334;stroke-linecap:round;stroke-linejoin:round;}
	.st30{fill:#3FAC49;stroke:#231F20;stroke-width:3.2334;stroke-linecap:round;stroke-linejoin:round;}
	.st31{fill:#F399C0;}
	.st32{fill:#F399C0;stroke:#231F20;stroke-width:3.2334;stroke-linecap:round;stroke-linejoin:round;}
	.st33{fill:#FFDD00;}
	.st34{fill:#FFFFFF;stroke:#231F20;stroke-width:3.4702;}
	.st35{fill:none;stroke:#D1232A;stroke-width:4.8584;}
	.st36{fill:#25408E;stroke:#231F20;stroke-width:3.4702;}
	.st37{fill:none;stroke:#D1232A;stroke-width:4.8584;stroke-linecap:round;stroke-linejoin:round;}
	.st38{fill:#FFDD00;stroke:#231F20;stroke-width:3.4702;}
	.st39{fill:#D1232A;stroke:#231F20;stroke-width:3.4702;}
	.st40{fill:none;stroke:#231F20;stroke-width:3.4702;}
	.st41{fill:none;stroke:#D1232A;stroke-width:3.4702;}
	.st42{fill:none;stroke:#231F20;stroke-width:2.1841;}
	.st43{fill:none;stroke:#00B1EA;stroke-width:3.058;stroke-linecap:round;stroke-linejoin:round;}
	.st44{fill:#FFFFFF;stroke:#231F20;stroke-width:1.5049;stroke-linecap:round;stroke-linejoin:round;}
	.st45{fill:#EB008B;stroke:#231F20;stroke-width:1.5049;stroke-linecap:round;stroke-linejoin:round;}
	.st46{fill:#F399C0;stroke:#231F20;stroke-width:1.5049;stroke-linecap:round;stroke-linejoin:round;}
	.st47{fill:none;stroke:#231F20;stroke-width:1.5049;}
	.st48{fill:none;stroke:#231F20;stroke-width:1.5049;stroke-linecap:round;stroke-linejoin:round;}
	.st49{fill:#D1232A;stroke:#231F20;stroke-width:1.5049;}
	.st50{fill:#FFFFFF;}
	.st51{fill:#FFFFFF;stroke:#231F20;stroke-width:1.6231;stroke-linecap:round;stroke-linejoin:round;}
	.st52{fill:#3FAC49;stroke:#231F20;stroke-width:1.6231;stroke-linecap:round;stroke-linejoin:round;}
	.st53{fill:#FFDD00;stroke:#231F20;stroke-width:1.6231;stroke-linecap:round;stroke-linejoin:round;}
	.st54{fill:none;stroke:#231F20;stroke-width:1.6231;}
	.st55{fill:none;stroke:#231F20;stroke-width:1.6231;stroke-linecap:round;stroke-linejoin:round;}
	.st56{fill:#00B1EA;stroke:#231F20;stroke-width:1.6231;}
	.st57{fill:#3FAC49;stroke:#231F20;stroke-width:1.6231;}
	.st58{fill:#FFFFFF;stroke:#231F20;stroke-width:2.4981;stroke-linecap:round;stroke-linejoin:round;}
	.st59{fill:#EB008B;stroke:#231F20;stroke-width:2.4981;stroke-linecap:round;stroke-linejoin:round;}
	.st60{fill:none;stroke:#231F20;stroke-width:2.4981;stroke-linecap:round;stroke-linejoin:round;}
	.st61{fill:#F399C0;stroke:#231F20;stroke-width:2.4981;stroke-linecap:round;stroke-linejoin:round;}
	.st62{fill:#FFDD00;stroke:#231F20;stroke-width:2.4981;stroke-linecap:round;stroke-linejoin:round;}
	.st63{fill:#F399C0;stroke:#231F20;stroke-width:1.6616;stroke-linecap:round;stroke-linejoin:round;}
	.st64{fill:#FFFFFF;stroke:#231F20;stroke-width:1.6616;stroke-linecap:round;stroke-linejoin:round;}
	.st65{fill:#D1232A;stroke:#231F20;stroke-width:1.6616;stroke-linecap:round;stroke-linejoin:round;}
	.st66{fill:#FFDD00;stroke:#231F20;stroke-width:1.6616;}
	.st67{fill:none;stroke:#231F20;stroke-width:1.6616;stroke-linecap:round;stroke-linejoin:round;}
	.st68{fill:#00B1EA;}
	.st69{fill:url(#SVGID_1_);}
	.st70{fill:#EB008B;stroke:#231F20;stroke-width:2.1841;stroke-linecap:round;stroke-linejoin:round;}
	.st71{fill:#FFDD00;stroke:#231F20;stroke-width:2.1841;}
	.st72{fill:#F6921E;stroke:#231F20;stroke-width:2.1841;}
	.st73{fill:#006A44;stroke:#231F20;stroke-width:2.1841;stroke-linecap:round;stroke-linejoin:round;}
	.st74{fill:#1E181A;}
	.st75{fill:#E91D52;}
	.st76{fill:#E91E53;}
	.st77{fill:#FEFEFE;}
	.st78{fill:#E81D52;}
	.st79{fill:#FCE439;}
</style>
<g>
	<path class="st0" d="M216.7,455.2c0,0-51.1,4.2-49.1,28.6c2,24.4,8.3,26.2,12.6,50.5c4.3,24.3,26.7,35.5,42.7,33.4
		c16-2.1,36.7-20.7,36.7-20.7s24.5-29.6,22.6-43.3C280.2,490,216.7,455.2,216.7,455.2z"/>
	<path class="st13" d="M286.4,477.8c0,0,100.2,20,150.1-5.7c0,0-7.4,68.8-63.9,79.9C316.1,563.1,277.2,498.1,286.4,477.8z"/>
	<path class="st6" d="M341.3,485.8c0,0-2.2,38.6,27,38.5c29.2-0.1,28.2-39.9,28.2-39.9S369.8,486.6,341.3,485.8z"/>
	<path class="st7" d="M127.3,489.4c0,0-6.4-41-36.9-18.5c0,0-33.5,3.5-7.2,15.2c0,0-3.5,23.3,15.8,24.1c19.3,0.7,23-10.3,23-10.3
		l219.4,72L474.1,654l22.7-14.1c0,0,12.7,5.1,16.7-2.1c4-7.2-11.7-12.1-11.7-12.1s2.1-12.5,15.4-8.9c13.3,3.5-4-58.8-4-58.8
		L351,557.2L127.3,489.4z"/>
	<line class="st2" x1="383.9" y1="565.3" x2="503.4" y2="618.6"/>
	<line class="st2" x1="403.2" y1="566.8" x2="516.9" y2="613.6"/>
	<line class="st2" x1="435.8" y1="571.1" x2="520.7" y2="603.4"/>
	<line class="st2" x1="515.9" y1="573.8" x2="422.9" y2="563.7"/>
	<line class="st2" x1="387.2" y1="578.1" x2="496.7" y2="639.9"/>
	<line class="st2" x1="370.5" y1="580.2" x2="484.1" y2="645.5"/>
	<path class="st0" d="M264,527.4c0,0-24.1,6.6-32.8,31.8c-8.7,25.3,8.3,54.6,39.5,42.1c31.2-12.5,45.1-30.6,46.3-54.5
		C318.2,523,295,511.8,264,527.4z"/>
	<path class="st0" d="M225.9,456c0,0-38.9,31.6-34.4,58.9c4.5,27.3,58,32.9,66.6,6.1C266.7,494.2,244.9,443.7,225.9,456z"/>
	<path class="st10" d="M277,469.5l-42.4,7.3l9.9,56c0,0,43.9,1,51.2-31.1C303.1,469.7,277,469.5,277,469.5z"/>
	<g>
		<line class="st14" x1="258.4" y1="474.2" x2="268.5" y2="523.3"/>
		<line class="st14" x1="274.8" y1="477.4" x2="281.3" y2="519.2"/>
		<line class="st14" x1="240.8" y1="475.6" x2="255.2" y2="529"/>
	</g>
	<g>
		<line class="st2" x1="314.8" y1="187.9" x2="362.9" y2="230.8"/>
		<path class="st0" d="M316.2,300.4c0,0,28-24.6,44.3-12.8c16.3,11.7-0.6,49.2-0.6,49.2s17.8,39.3,13.7,74.2
			c-4.1,34.9-35.2,76.6-108.7,61.9c-73.4-14.8-107.7-20.4-111.1-72.4c-3.5-52,20-66.2,20-66.2s-9.6-13.8,2.2-38.6
			c11.8-24.8,27.4-12.2,45,5.6C238.6,319,316.2,300.4,316.2,300.4z"/>
		<path class="st15" d="M312.8,191.6c0,0-82.5,99.7-112,115.9c0,0,55.9,44.6,107,21.3l22.1-21L312.8,191.6z"/>
		<path class="st7" d="M268.2,427.5c0.4,4.4-4.4,8.4-10.5,8.9c-6.2,0.5-11.5-2.7-11.8-7.1c-0.4-4.4,4.3-8.4,10.5-8.9
			C262.6,419.9,267.9,423.1,268.2,427.5z"/>
		<g>
			<path class="st5" d="M210.7,405.5c-0.9,4.7-4.4,8.1-7.9,7.4c-3.4-0.7-5.4-5.1-4.5-9.8c0.9-4.7,4.4-8,7.9-7.4
				C209.6,396.4,211.6,400.7,210.7,405.5z"/>
			<path class="st5" d="M319.7,415.6c-0.9,4.8-4.4,8.1-7.9,7.4c-3.4-0.7-5.4-5.1-4.5-9.8c0.9-4.7,4.4-8,7.9-7.4
				C318.6,406.5,320.6,410.8,319.7,415.6z"/>
		</g>
		<path class="st6" d="M387.7,239.1c-0.6-7.7-7.4-13.4-15.1-12.8c-7.7,0.6-13.4,7.4-12.8,15.1c0.6,7.7,7.4,13.4,15.1,12.8
			C382.6,253.6,388.3,246.8,387.7,239.1z"/>
		<polygon class="st16" points="301.9,254.5 288.1,240.2 283.1,256.1 267,256.7 279.6,265.5 276.5,279.1 290.3,276.5 306.4,275.2 
			299.1,263.2 314.7,256.3 		"/>
		<g>
			<path class="st3" d="M326.7,309.4c0,0-6.9-50-31.7-35.3c-24.8,14.6-35.3,57.6-16.1,61c19.2,3.4,34.4,0,34.4,0s6.9,6.5,14.3,19.9
				c7.4,13.4,23.8,7.9,35-0.7c11.2-8.6,19.7-16.4,11.6-29.7c-8.1-13.4-26.3-4.2-41.5-1.5C317.5,325.6,326.7,309.4,326.7,309.4z"/>
			<path class="st3" d="M353.3,334.6c-0.5-5.8-5.5-10.1-11.3-9.6c-5.8,0.5-10.1,5.5-9.6,11.3c0.5,5.8,5.5,10.1,11.3,9.6
				C349.5,345.4,353.8,340.4,353.3,334.6z"/>
			<path class="st3" d="M310.7,311.4c-0.5-6.2-5.9-10.8-12.1-10.3c-6.2,0.5-10.8,5.9-10.3,12.1c0.5,6.2,5.9,10.7,12.1,10.2
				C306.6,322.9,311.2,317.5,310.7,311.4z"/>
			<path class="st3" d="M343.1,321.4c-1-11.9-11.4-20.8-23.4-19.9c-11.9,1-20.8,11.5-19.9,23.4c1,11.9,11.4,20.8,23.4,19.9
				C335.2,343.8,344.1,333.3,343.1,321.4z"/>
		</g>
		<g>
			<path class="st2" d="M169.9,390.9c0,0-15.6-5.2-45.4,1.5"/>
			<path class="st2" d="M173.6,410.1c0,0-25.3-4.4-41.8,5.6"/>
			<path class="st2" d="M176.8,422.8c0,0-27.3,10.9-37.3,20.4"/>
			<path class="st2" d="M358.2,401.6c0,0,26.5-6.5,47.9,3.7"/>
			<path class="st2" d="M361.9,420.8c0,0,15.5,4.2,30,9.5"/>
			<path class="st2" d="M350.5,440.1c0,0,29.9,8.4,36.4,21.9"/>
		</g>
	</g>
</g>
</svg>
