<?xml version="1.0" encoding="utf-8"?>
<!-- Generator: Adobe Illustrator 22.0.0, SVG Export Plug-In . SVG Version: 6.00 Build 0)  -->
<svg version="1.1" id="Layer_1" xmlns="http://www.w3.org/2000/svg" xmlns:xlink="http://www.w3.org/1999/xlink" x="0px" y="0px"
	 viewBox="0 0 595.3 841.9" style="enable-background:new 0 0 595.3 841.9;" xml:space="preserve">
<style type="text/css">
	.st0{fill:#FFFFFF;stroke:#231F20;stroke-width:2.1841;stroke-linecap:round;stroke-linejoin:round;}
	.st1{fill:#FFF100;stroke:#231F20;stroke-width:2.1841;stroke-linecap:round;stroke-linejoin:round;}
	.st2{fill:none;stroke:#231F20;stroke-width:2.1841;stroke-linecap:round;stroke-linejoin:round;}
	.st3{fill:#D1232A;stroke:#231F20;stroke-width:2.1841;stroke-linecap:round;stroke-linejoin:round;}
	.st4{fill:#3FAC49;stroke:#231F20;stroke-width:2.1841;stroke-linecap:round;stroke-linejoin:round;}
	.st5{fill:#231F20;}
	.st6{fill:#F6921E;stroke:#231F20;stroke-width:2.1841;stroke-linecap:round;stroke-linejoin:round;}
	.st7{fill:#FFDD00;stroke:#231F20;stroke-width:2.1841;stroke-linecap:round;stroke-linejoin:round;}
	.st8{fill:#F399C0;stroke:#231F20;stroke-width:2.1841;stroke-linecap:round;stroke-linejoin:round;}
	.st9{fill:none;stroke:#D1232A;stroke-width:2.1841;stroke-linecap:round;stroke-linejoin:round;}
	.st10{fill:#00B1EA;stroke:#231F20;stroke-width:2.1841;stroke-linecap:round;stroke-linejoin:round;}
	.st11{fill:#00ADEE;stroke:#231F20;stroke-width:2.1841;stroke-linecap:round;stroke-linejoin:round;}
	.st12{fill:none;stroke:#D1232A;stroke-width:3.4947;stroke-linecap:round;stroke-linejoin:round;}
	.st13{fill:#231F20;stroke:#231F20;stroke-width:2.1841;stroke-linecap:round;stroke-linejoin:round;}
	.st14{fill:none;stroke:#25408E;stroke-width:2.1841;stroke-linecap:round;stroke-linejoin:round;}
	.st15{fill:#231F20;stroke:#231F20;stroke-width:2.1841;}
	.st16{fill:#F6921E;}
	.st17{fill:#FFFFFF;stroke:#231F20;stroke-width:1.3205;stroke-linecap:round;stroke-linejoin:round;}
	.st18{fill:#231F20;stroke:#231F20;stroke-width:1.3205;stroke-linecap:round;stroke-linejoin:round;}
	.st19{fill:#F6921E;stroke:#231F20;stroke-width:1.3205;stroke-linecap:round;stroke-linejoin:round;}
	.st20{fill:#FFDD00;stroke:#231F20;stroke-width:1.3205;stroke-linecap:round;stroke-linejoin:round;}
	.st21{fill:none;stroke:#231F20;stroke-width:1.3205;stroke-linecap:round;stroke-linejoin:round;}
	.st22{fill:#00B1EA;stroke:#231F20;stroke-width:1.3205;stroke-linecap:round;stroke-linejoin:round;}
	.st23{fill:none;stroke:#25408E;stroke-width:1.3205;stroke-linecap:round;stroke-linejoin:round;}
	.st24{fill:#231F20;stroke:#231F20;stroke-width:1.3205;}
	.st25{fill:#D1232A;stroke:#231F20;stroke-width:1.3205;stroke-linecap:round;stroke-linejoin:round;}
	.st26{fill:#FFFFFF;stroke:#231F20;stroke-width:3.2334;stroke-linecap:round;stroke-linejoin:round;}
	.st27{fill:#FFDD00;stroke:#231F20;stroke-width:3.2334;stroke-linecap:round;stroke-linejoin:round;}
	.st28{fill:none;stroke:#231F20;stroke-width:3.2334;stroke-linecap:round;stroke-linejoin:round;}
	.st29{fill:#D1232A;stroke:#231F20;stroke-width:3.2334;stroke-linecap:round;stroke-linejoin:round;}
	.st30{fill:#3FAC49;stroke:#231F20;stroke-width:3.2334;stroke-linecap:round;stroke-linejoin:round;}
	.st31{fill:#F399C0;}
	.st32{fill:#F399C0;stroke:#231F20;stroke-width:3.2334;stroke-linecap:round;stroke-linejoin:round;}
	.st33{fill:#FFDD00;}
	.st34{fill:#FFFFFF;stroke:#231F20;stroke-width:3.4702;}
	.st35{fill:none;stroke:#D1232A;stroke-width:4.8584;}
	.st36{fill:#25408E;stroke:#231F20;stroke-width:3.4702;}
	.st37{fill:none;stroke:#D1232A;stroke-width:4.8584;stroke-linecap:round;stroke-linejoin:round;}
	.st38{fill:#FFDD00;stroke:#231F20;stroke-width:3.4702;}
	.st39{fill:#D1232A;stroke:#231F20;stroke-width:3.4702;}
	.st40{fill:none;stroke:#231F20;stroke-width:3.4702;}
	.st41{fill:none;stroke:#D1232A;stroke-width:3.4702;}
	.st42{fill:none;stroke:#231F20;stroke-width:2.1841;}
	.st43{fill:none;stroke:#00B1EA;stroke-width:3.058;stroke-linecap:round;stroke-linejoin:round;}
	.st44{fill:#FFFFFF;stroke:#231F20;stroke-width:1.5049;stroke-linecap:round;stroke-linejoin:round;}
	.st45{fill:#EB008B;stroke:#231F20;stroke-width:1.5049;stroke-linecap:round;stroke-linejoin:round;}
	.st46{fill:#F399C0;stroke:#231F20;stroke-width:1.5049;stroke-linecap:round;stroke-linejoin:round;}
	.st47{fill:none;stroke:#231F20;stroke-width:1.5049;}
	.st48{fill:none;stroke:#231F20;stroke-width:1.5049;stroke-linecap:round;stroke-linejoin:round;}
	.st49{fill:#D1232A;stroke:#231F20;stroke-width:1.5049;}
	.st50{fill:#FFFFFF;}
	.st51{fill:#FFFFFF;stroke:#231F20;stroke-width:1.6231;stroke-linecap:round;stroke-linejoin:round;}
	.st52{fill:#3FAC49;stroke:#231F20;stroke-width:1.6231;stroke-linecap:round;stroke-linejoin:round;}
	.st53{fill:#FFDD00;stroke:#231F20;stroke-width:1.6231;stroke-linecap:round;stroke-linejoin:round;}
	.st54{fill:none;stroke:#231F20;stroke-width:1.6231;}
	.st55{fill:none;stroke:#231F20;stroke-width:1.6231;stroke-linecap:round;stroke-linejoin:round;}
	.st56{fill:#00B1EA;stroke:#231F20;stroke-width:1.6231;}
	.st57{fill:#3FAC49;stroke:#231F20;stroke-width:1.6231;}
	.st58{fill:#FFFFFF;stroke:#231F20;stroke-width:2.4981;stroke-linecap:round;stroke-linejoin:round;}
	.st59{fill:#EB008B;stroke:#231F20;stroke-width:2.4981;stroke-linecap:round;stroke-linejoin:round;}
	.st60{fill:none;stroke:#231F20;stroke-width:2.4981;stroke-linecap:round;stroke-linejoin:round;}
	.st61{fill:#F399C0;stroke:#231F20;stroke-width:2.4981;stroke-linecap:round;stroke-linejoin:round;}
	.st62{fill:#FFDD00;stroke:#231F20;stroke-width:2.4981;stroke-linecap:round;stroke-linejoin:round;}
	.st63{fill:#F399C0;stroke:#231F20;stroke-width:1.6616;stroke-linecap:round;stroke-linejoin:round;}
	.st64{fill:#FFFFFF;stroke:#231F20;stroke-width:1.6616;stroke-linecap:round;stroke-linejoin:round;}
	.st65{fill:#D1232A;stroke:#231F20;stroke-width:1.6616;stroke-linecap:round;stroke-linejoin:round;}
	.st66{fill:#FFDD00;stroke:#231F20;stroke-width:1.6616;}
	.st67{fill:none;stroke:#231F20;stroke-width:1.6616;stroke-linecap:round;stroke-linejoin:round;}
	.st68{fill:#00B1EA;}
	.st69{fill:url(#SVGID_1_);}
	.st70{fill:#EB008B;stroke:#231F20;stroke-width:2.1841;stroke-linecap:round;stroke-linejoin:round;}
	.st71{fill:#FFDD00;stroke:#231F20;stroke-width:2.1841;}
	.st72{fill:#F6921E;stroke:#231F20;stroke-width:2.1841;}
	.st73{fill:#006A44;stroke:#231F20;stroke-width:2.1841;stroke-linecap:round;stroke-linejoin:round;}
	.st74{fill:#1E181A;}
	.st75{fill:#E91D52;}
	.st76{fill:#E91E53;}
	.st77{fill:#FEFEFE;}
	.st78{fill:#E81D52;}
	.st79{fill:#FCE439;}
</style>
<g>
	<path class="st0" d="M211.8,597.1c0,0-37.1,25.1-28.3,56.7c8.7,31.6,76.3,43.6,92.7,28.3c0,0,25.1-42.5,26.2-46.9
		c1.1-4.4-7.6-50.1-38.1-52.3C233.6,580.7,211.8,597.1,211.8,597.1z"/>
	<path class="st0" d="M307.7,591.7c0,0-44.7,24-46.9,57.8c-2.2,33.8,46.9,46.9,92.7,41.4c45.8-5.5,91.6-37.1,53.4-92.7L307.7,591.7z
		"/>
	<path class="st7" d="M155.1,485.9c0,0,8.7,34.9,69.8,42.5c61,7.6,42.5-102.5,42.5-102.5s-63.2-25.1-80.7-3.3
		C169.3,444.5,155.1,485.9,155.1,485.9z"/>
	<path class="st0" d="M209.6,412.9l-44.7,92.7c0,0-55.6-25.1-36-79.6C148.6,371.4,208.5,392.2,209.6,412.9z"/>
	<path class="st0" d="M274,180.7c0,0,91.6-12,142.8,7.6c0,0,25.1-38.2,70.9-21.8c30.5,34.9,6.5,101.4-13.1,91.6
		c0,0,61,81.8,6.5,155.9c-54.5,74.1-138.4,60-218,42.5c-79.6-17.4-159.1-119.9-79.6-220.2c0,0-18.5,7.6-14.2-29.4
		c4.4-37.1,30.5-59.9,46.9-56.7C232.5,153.4,274,180.7,274,180.7z"/>
	<line class="st2" x1="167" y1="397" x2="185.5" y2="393.6"/>
	<g>
		<path class="st5" d="M243.3,342.1c0,8.8-5.3,15.9-11.9,15.9c-6.6,0-11.9-7.1-11.9-15.9c0-8.8,5.3-15.9,11.9-15.9
			C238,326.3,243.3,333.4,243.3,342.1z"/>
		<path class="st5" d="M431.9,367.5c0,8.8-5.3,15.9-11.9,15.9c-6.6,0-11.9-7.1-11.9-15.9c0-8.8,5.3-15.9,11.9-15.9
			C426.6,351.6,431.9,358.7,431.9,367.5z"/>
	</g>
	<path class="st42" d="M476.7,351.7c0,0,12.2-9.1,67,10.2"/>
	<path class="st42" d="M475.7,387.3c0,0,25.4,3,45.7,16.2"/>
	<path class="st42" d="M456.4,414.7c0,0,35.5,19.3,49.8,31.5"/>
	<path class="st3" d="M270.7,442.3c0,0-69.8,69.8-71.9,165.7h218c0,0,1.1-14.2,3.3-41.4c2.2-27.3-28.3-117.7-28.3-117.7L270.7,442.3
		z"/>
	<path class="st0" d="M451.6,505.5c0,0,37.1,28.3,29.4,57.8c-7.6,29.4-38.2,42.5-58.9,20.7c0,0-13.1,9.8-24-7.6
		c-10.9-17.4,8.7-49.1,8.7-49.1L451.6,505.5z"/>
	<path class="st0" d="M283.8,503.4c0,0,5.4-26.2,26.2-20.7c20.7,5.4,7.6,27.2,7.6,27.2s27.3-10.9,27.3,9.8
		c0,20.7-18.5,17.4-18.5,17.4s15.3,21.8-1.1,28.3c-16.4,6.5-32.7-12-32.7-12s-20.7,21.8-30.5,6.5c-9.8-15.3,5.5-29.4,5.5-29.4
		s-30.5-21.8-9.8-33.8C278.3,484.8,283.8,503.4,283.8,503.4z"/>
	<path class="st7" d="M309.9,528.4c0-7.2-5.9-13.1-13.1-13.1c-7.2,0-13.1,5.9-13.1,13.1c0,7.2,5.9,13.1,13.1,13.1
		C304.1,541.5,309.9,535.7,309.9,528.4z"/>
	<line class="st43" x1="220.5" y1="442.3" x2="182.4" y2="515.3"/>
	<line class="st43" x1="236.9" y1="449.9" x2="198.7" y2="517.5"/>
	<path class="st3" d="M336.1,388.9c0,7.2-7.8,13.1-17.4,13.1c-9.6,0-17.4-5.9-17.4-13.1c0-7.2,7.8-13.1,17.4-13.1
		C328.3,375.8,336.1,381.7,336.1,388.9z"/>
	<g>
		<path class="st3" d="M428.7,216.6c0,0,2.2-49-30.5-60c-32.7-10.9-64.3,29.4-64.3,69.8c0,40.3,38.2,38.1,70.9,17.4
			C437.5,223.2,428.7,216.6,428.7,216.6z"/>
		<path class="st3" d="M435.3,231.9c0,0,49.1-22.9,69.8,6.6c20.7,29.4,2.2,34.9-24,61c-26.2,26.2-67.6,3.3-58.9-43.6
			C430.9,209,435.3,231.9,435.3,231.9z"/>
		<path class="st3" d="M468,260.3c0-9-7.3-16.4-16.3-16.4c-9,0-16.4,7.3-16.4,16.4c0,9,7.3,16.4,16.4,16.4
			C460.7,276.6,468,269.3,468,260.3z"/>
		<path class="st3" d="M405.9,214.5c0-8.4-6.8-15.3-15.3-15.3c-8.4,0-15.3,6.8-15.3,15.3c0,8.4,6.8,15.3,15.3,15.3
			C399,229.7,405.9,222.9,405.9,214.5z"/>
		<path class="st3" d="M447.3,238.5c0-16.3-13.2-29.4-29.4-29.4c-16.3,0-29.4,13.2-29.4,29.4c0,16.2,13.2,29.4,29.4,29.4
			C434.1,267.9,447.3,254.7,447.3,238.5z"/>
	</g>
	<g>
		<polyline class="st2" points="141.7,427 141.7,460.5 154.3,458.2 		"/>
		<g>
			<polygon class="st0" points="170.2,348 188.6,363.8 161.7,371.7 			"/>
			<path class="st7" d="M114.8,400.7l-35.3-39l-27.9,21.6c0,0,35.9,26.9,42.7,33.7C101.1,423.9,122.7,413.9,114.8,400.7z"/>
			<path class="st7" d="M132.7,382.8l-38.5,34.3c0,0,21.1,24.3,46.9,21.1c25.8-3.2,40.1-21.1,32.2-41.1
				C165.4,377,149.6,367.5,132.7,382.8z"/>
			<path class="st7" d="M175.1,348.6c0-20.4-16.5-36.9-36.9-36.9c-20.4,0-36.9,16.5-36.9,36.9c0,20.4,16.5,36.9,36.9,36.9
				C158.6,385.5,175.1,369,175.1,348.6z"/>
			<path class="st5" d="M159.1,357c0-3.5-2.8-6.3-6.3-6.3c-3.5,0-6.3,2.8-6.3,6.3c0,3.5,2.8,6.3,6.3,6.3
				C156.3,363.4,159.1,360.5,159.1,357z"/>
		</g>
	</g>
	<path class="st7" d="M401.5,468.5c0,0,30.5,15.3,50.1,37.1L395,548.1c0,0-38.2-39.2-24-60C385.1,467.4,401.5,468.5,401.5,468.5z"/>
	<line class="st43" x1="417.8" y1="477.2" x2="374.2" y2="511"/>
	<line class="st43" x1="436.4" y1="492.4" x2="384.1" y2="532.8"/>
	<path class="st2" d="M401.5,468.5c0,0,30.5,15.3,50.1,37.1L395,548.1c0,0-38.2-39.2-24-60C385.1,467.4,401.5,468.5,401.5,468.5z"/>
</g>
</svg>
