<?xml version="1.0" standalone="no"?>
<!DOCTYPE svg PUBLIC "-//W3C//DTD SVG 20010904//EN"
 "http://www.w3.org/TR/2001/REC-SVG-20010904/DTD/svg10.dtd">
<svg version="1.0" xmlns="http://www.w3.org/2000/svg"
 width="1280.000000pt" height="1280.000000pt" viewBox="0 0 1280.000000 1280.000000"
 preserveAspectRatio="xMidYMid meet">
<metadata>
Created by potrace 1.15, written by Peter Selinger 2001-2017
</metadata>
<g transform="translate(0.000000,1280.000000) scale(0.100000,-0.100000)"
fill="#000000" stroke="none">
<path d="M1849 12175 c-121 -39 -194 -125 -187 -222 5 -59 47 -136 88 -162 24
-15 25 -15 8 5 -30 35 -58 108 -58 154 0 73 56 141 139 169 83 28 245 4 307
-44 13 -11 6 -10 -21 3 -49 24 -133 42 -183 41 -24 -1 -12 -5 33 -10 128 -17
240 -86 404 -250 144 -144 224 -259 316 -454 57 -119 153 -367 160 -412 2 -15
24 -86 49 -158 25 -71 46 -141 46 -155 0 -14 9 -54 20 -90 55 -176 122 -485
180 -822 22 -128 52 -280 65 -336 14 -57 23 -108 20 -112 -3 -5 4 -32 15 -60
22 -55 26 -93 6 -46 -7 16 -16 24 -20 18 -3 -5 12 -49 34 -96 22 -50 37 -93
33 -103 -5 -12 -3 -14 7 -8 9 5 11 4 6 -3 -4 -6 3 -29 14 -52 11 -22 18 -40
15 -40 -2 0 -18 25 -33 57 -17 32 -32 51 -36 45 -8 -13 151 -307 196 -365 50
-62 20 -57 -38 7 -67 74 -148 228 -235 447 -10 28 -15 48 -9 44 15 -9 14 -5
-36 99 -31 66 -43 103 -39 117 5 14 3 19 -3 15 -6 -4 -8 2 -4 16 3 14 1 19 -6
14 -7 -4 -10 -2 -7 6 2 7 -6 49 -19 93 -12 43 -25 73 -27 66 -6 -16 -62 171
-93 307 -12 51 -25 90 -29 86 -4 -4 -5 8 -2 27 4 22 3 28 -3 15 -12 -28 -152
478 -150 544 0 14 -13 77 -31 140 -17 63 -31 123 -31 132 0 28 -107 321 -159
439 -69 154 -150 276 -243 365 -105 100 -166 129 -269 129 -81 0 -119 -18
-119 -55 0 -9 28 -55 63 -101 143 -189 227 -330 457 -764 246 -463 280 -545
502 -1209 159 -476 241 -679 342 -851 l36 -60 -51 55 c-28 30 -77 96 -109 145
-33 50 -66 97 -74 107 -8 9 -11 20 -8 24 4 5 0 3 -9 -4 -9 -6 -19 -10 -22 -7
-4 3 -4 2 -1 -2 3 -5 10 -9 15 -9 5 -1 13 -2 17 -3 4 0 8 -10 9 -20 3 -38 -30
-14 -68 49 -45 74 -46 74 -46 55 0 -8 5 -15 10 -15 6 0 8 -3 4 -6 -3 -4 17
-40 45 -81 27 -42 53 -71 57 -66 9 13 34 10 38 -4 3 -8 -3 -11 -16 -8 -29 5
-27 0 20 -59 l41 -51 -52 55 c-29 30 -72 84 -98 120 -25 36 -54 72 -65 81 -11
9 -17 21 -13 27 3 6 1 14 -5 18 -8 5 -9 3 -4 -6 5 -9 4 -11 -3 -6 -6 4 -28 37
-49 74 -20 37 -44 72 -53 78 -8 7 -28 39 -44 72 -16 34 -32 59 -36 57 -6 -4
-107 161 -173 285 -20 36 -54 112 -77 169 -131 334 -361 613 -595 723 -119 55
-262 50 -295 -11 -14 -27 -13 -67 4 -99 16 -29 100 -113 240 -238 132 -117
514 -490 567 -554 25 -30 122 -161 214 -290 289 -405 389 -530 524 -660 32
-30 50 -49 41 -42 -10 7 -24 12 -31 10 -8 -2 -13 2 -12 8 1 6 -40 48 -90 94
l-92 83 85 -88 c82 -85 78 -87 -25 -12 -37 26 -36 25 8 -16 30 -28 45 -47 38
-52 -16 -9 -3 -25 15 -18 8 3 14 2 12 -3 -3 -10 5 -14 25 -14 6 0 -1 9 -18 20
-16 11 -26 20 -22 20 4 0 19 -7 33 -16 20 -14 22 -19 12 -33 -7 -9 -9 -13 -4
-9 5 4 23 -3 40 -16 39 -30 103 -62 179 -91 33 -12 55 -25 50 -28 -16 -10
-380 177 -508 260 -66 44 -160 113 -210 155 -95 79 -343 329 -410 413 -220
277 -519 493 -747 541 -213 45 -329 -58 -186 -166 26 -19 208 -122 405 -229
453 -245 482 -264 698 -456 147 -131 175 -154 248 -204 42 -29 74 -58 70 -64
-3 -6 -1 -7 5 -3 15 9 54 -12 47 -24 -3 -6 1 -7 9 -4 9 4 18 0 22 -10 3 -9 48
-39 100 -67 94 -50 118 -67 68 -48 -37 14 -41 4 -5 -11 16 -6 35 -9 42 -4 7 4
10 3 6 -3 -4 -6 10 -18 33 -27 58 -23 240 -76 261 -76 23 0 24 -13 4 -30 -13
-11 -31 -7 -103 20 -154 58 -464 219 -627 325 -156 101 -347 217 -440 266
-130 68 -224 103 -455 169 -263 75 -357 109 -506 180 -189 90 -251 161 -225
258 17 62 66 97 161 116 14 3 -1 3 -33 1 -98 -6 -161 -63 -173 -156 -4 -35 0
-54 20 -94 l25 -50 -26 30 -25 30 18 -33 c52 -94 298 -221 678 -352 189 -64
371 -138 363 -146 -1 -2 -41 7 -88 20 -332 91 -775 120 -1039 67 -285 -57
-494 -180 -571 -337 -28 -56 -31 -71 -27 -133 3 -60 8 -75 34 -107 74 -91 221
-111 309 -42 15 11 30 30 35 42 7 18 9 16 19 -20 24 -88 127 -186 237 -226 82
-29 228 -36 314 -14 156 39 286 140 351 271 29 60 34 79 34 145 0 66 -5 85
-33 143 -38 77 -92 128 -166 156 -62 24 -45 26 70 6 262 -45 605 -170 764
-279 48 -32 51 -36 25 -32 -22 4 -19 2 10 -8 22 -8 49 -15 60 -16 21 -1 108
-50 89 -50 -6 0 -37 9 -69 20 -69 24 -75 24 -50 7 16 -13 15 -14 -16 -11 -34
4 -34 4 6 -9 37 -13 38 -14 15 -20 -14 -3 14 -5 61 -4 l86 2 91 -64 c90 -64
108 -79 76 -67 -41 16 -245 25 -350 16 -162 -14 -473 -94 -723 -186 -518 -190
-627 -219 -831 -219 -108 1 -152 5 -219 23 -46 13 -85 21 -88 18 -18 -17 72
-66 166 -91 79 -20 255 -21 366 -1 120 21 186 40 455 128 314 102 419 128 551
135 122 7 239 -14 424 -75 l110 -36 -85 -8 c-179 -15 -243 -34 -583 -172 -219
-88 -557 -203 -709 -240 -216 -53 -385 -68 -529 -45 -83 13 -103 9 -69 -14 48
-31 150 -50 265 -50 185 1 331 32 790 166 344 101 384 108 560 105 l150 -3
-80 -28 c-44 -16 -165 -73 -270 -127 -407 -210 -862 -359 -1195 -390 -200 -19
-220 -21 -220 -29 0 -14 59 -21 182 -21 228 0 395 36 888 194 336 106 317 102
519 131 217 32 228 32 176 2 -22 -13 -67 -41 -100 -64 -133 -90 -455 -243
-713 -339 -78 -29 -150 -58 -160 -63 -16 -10 -16 -10 1 -11 29 0 166 37 264
71 48 17 194 76 323 131 300 128 270 118 580 192 314 75 355 92 382 153 33 75
37 46 4 -33 l-31 -76 -85 -43 c-47 -24 -159 -85 -250 -135 -190 -104 -506
-262 -630 -313 -47 -19 -131 -56 -188 -81 -158 -70 -440 -173 -506 -185 -127
-23 -218 -10 -280 40 -67 56 -97 167 -58 215 40 51 135 70 181 38 19 -14 22
-24 19 -60 -2 -26 1 -39 6 -34 5 5 10 28 10 51 1 34 -4 45 -27 63 -34 25 -127
28 -167 6 -14 -8 -28 -13 -32 -12 -3 1 -20 -14 -37 -34 -27 -30 -31 -42 -31
-92 1 -101 61 -186 165 -234 43 -20 65 -23 165 -22 130 0 154 6 423 96 298 99
692 256 882 350 160 80 319 202 396 305 l24 32 0 -67 c0 -61 2 -67 22 -70 139
-20 648 675 785 1071 12 37 29 67 35 67 15 0 16 24 4 105 -6 33 -12 89 -15
125 -7 101 -44 358 -66 467 -26 127 -153 614 -236 908 -185 650 -374 1113
-583 1426 -181 271 -349 427 -579 537 -92 45 -102 47 -192 49 -62 2 -111 -3
-141 -12z m-579 -3144 l55 -7 -49 -6 c-63 -8 -105 -47 -113 -107 l-6 -42 -71
7 c-85 7 -169 -7 -245 -41 -89 -41 -141 -101 -166 -193 -7 -26 -14 -40 -14
-31 -1 9 -8 22 -16 29 -14 11 -14 10 -5 -15 35 -93 -64 -156 -187 -120 -64 19
-103 64 -109 127 l-4 43 13 -48 c14 -46 50 -97 70 -97 5 0 -2 9 -16 20 -54 43
-60 144 -12 226 69 118 285 223 520 253 84 10 279 12 355 2z m1838 -49 c2 -6
-5 -9 -14 -8 -10 2 -20 8 -22 14 -2 6 5 9 14 8 10 -2 20 -8 22 -14z m48 -70
c8 -12 12 -22 8 -22 -4 0 1 -7 12 -16 10 -8 12 -12 4 -8 -22 11 -51 37 -61 55
-13 26 18 18 37 -9z m-2026 -133 c59 -13 70 -30 70 -108 0 -56 -28 -105 -77
-134 -29 -17 -34 -17 -62 -3 -53 28 -78 85 -49 114 7 7 34 12 60 12 52 0 63
15 22 30 -52 20 -94 12 -130 -24 -38 -38 -42 -67 -20 -121 15 -35 15 -35 -12
-35 -40 0 -91 36 -108 76 -55 132 108 235 306 193z m2105 -19 c10 -11 16 -20
13 -20 -3 0 -13 9 -23 20 -10 11 -16 20 -13 20 3 0 13 -9 23 -20z m286 -92
c11 -21 11 -22 -4 -9 -10 7 -17 17 -17 22 0 15 9 10 21 -13z m-75 -89 c3 -6
-5 -3 -20 6 -14 10 -26 19 -26 22 0 7 39 -17 46 -28z m-266 -191 l98 -11 -51
-69 c-48 -64 -67 -80 -67 -59 0 5 -25 44 -55 86 -32 44 -49 75 -39 71 9 -4 61
-12 114 -18z m-40 -198 c0 -3 -6 -14 -13 -24 -12 -16 -14 -15 -24 17 -11 35
-10 35 13 25 13 -6 24 -14 24 -18z m-120 -200 c0 -5 -4 -10 -10 -10 -5 0 -10
5 -10 10 0 6 5 10 10 10 6 0 10 -4 10 -10z"/>
<path d="M1549 11602 c-57 -37 -95 -82 -131 -157 -23 -50 -28 -73 -28 -140 0
-44 4 -94 9 -111 9 -31 9 -32 -36 -38 -69 -9 -130 -40 -153 -78 -25 -41 -25
-97 -1 -205 l18 -81 -35 -7 c-95 -18 -175 -79 -216 -164 -29 -61 -31 -73 -30
-166 1 -55 6 -119 12 -142 l10 -42 -48 -16 c-129 -43 -210 -164 -181 -270 24
-89 105 -155 206 -170 l40 -6 -25 18 c-93 68 -122 112 -124 188 -1 86 59 158
145 171 22 4 48 18 64 34 l27 28 -16 64 c-44 170 -29 296 44 362 34 30 118 66
155 66 7 0 20 9 29 19 17 18 16 23 -5 98 -56 196 -40 243 88 259 26 4 58 13
70 20 22 14 22 15 6 66 -20 70 -20 181 0 243 21 62 66 119 126 156 25 16 40
29 35 29 -6 0 -30 -13 -55 -28z"/>
<path d="M1857 11613 c-4 -3 -7 -30 -7 -58 0 -68 48 -166 128 -261 32 -38 100
-123 151 -189 52 -66 110 -140 130 -165 35 -44 35 -43 -36 17 -98 84 -170 136
-228 166 -100 50 -225 74 -225 43 0 -14 38 -31 125 -57 87 -25 213 -83 260
-119 28 -20 102 -83 165 -138 63 -56 119 -102 123 -102 4 0 -38 53 -94 118
-183 210 -298 394 -394 622 -47 113 -57 130 -74 130 -10 0 -21 -3 -24 -7z"/>
<path d="M1670 11547 c-13 -7 -35 -28 -48 -47 -20 -30 -23 -44 -19 -92 9 -99
60 -152 148 -152 82 0 162 68 143 120 -17 50 -39 53 -82 11 -49 -48 -87 -50
-137 -6 -42 37 -47 81 -14 123 53 67 156 -10 105 -79 -8 -11 -19 -16 -30 -12
-9 4 -16 2 -16 -3 0 -12 40 -13 57 -2 42 27 31 112 -18 137 -34 18 -56 19 -89
2z"/>
<path d="M2540 11430 c6 -11 13 -20 16 -20 2 0 0 9 -6 20 -6 11 -13 20 -16 20
-2 0 0 -9 6 -20z"/>
<path d="M2710 11075 c0 -5 5 -17 10 -25 5 -8 10 -10 10 -5 0 6 -5 17 -10 25
-5 8 -10 11 -10 5z"/>
<path d="M1550 11022 c-106 -53 -108 -204 -4 -248 43 -18 80 -18 137 2 47 16
107 72 107 99 0 20 12 19 41 -3 13 -11 69 -47 124 -82 55 -34 126 -85 158
-112 82 -72 180 -198 238 -308 58 -110 57 -83 -2 35 -61 124 -251 354 -368
445 -106 83 -162 109 -224 107 -49 -2 -53 -4 -69 -39 -22 -46 -56 -70 -102
-71 -73 -2 -101 72 -50 132 42 51 124 38 124 -18 0 -34 -22 -55 -51 -48 -13 3
-19 1 -16 -6 8 -25 54 -19 76 9 36 46 23 94 -30 113 -42 14 -48 14 -89 -7z"/>
<path d="M2840 10735 c0 -5 5 -17 10 -25 5 -8 10 -10 10 -5 0 6 -5 17 -10 25
-5 8 -10 11 -10 5z"/>
<path d="M1686 10702 c-9 -14 -4 -16 115 -58 223 -77 304 -128 449 -281 51
-54 88 -88 81 -75 -45 85 -316 319 -440 379 -77 37 -191 57 -205 35z"/>
<path d="M2902 10560 c0 -8 6 -31 13 -50 7 -19 13 -28 13 -20 0 8 -6 31 -13
50 -7 19 -13 28 -13 20z"/>
<path d="M1285 10518 c-11 -6 -32 -22 -47 -36 -24 -22 -28 -34 -28 -80 0 -48
4 -58 34 -88 29 -29 41 -34 80 -34 37 0 52 -5 69 -24 13 -14 94 -52 205 -96
255 -101 386 -186 570 -370 45 -45 82 -78 82 -72 0 27 -207 217 -353 327 -179
132 -317 210 -407 228 l-60 13 54 36 55 35 47 -33 c26 -18 92 -59 148 -90 172
-98 273 -182 421 -356 49 -57 98 -112 108 -123 43 -43 -17 41 -100 141 -191
232 -449 457 -565 494 -34 10 -38 15 -38 46 0 37 -28 74 -57 74 -9 0 -27 -10
-40 -22 -13 -12 -23 -16 -23 -10 0 20 -62 52 -100 52 -19 0 -44 -6 -55 -12z
m89 -22 c42 -17 53 -48 32 -81 -18 -27 -61 -34 -69 -12 -3 7 -6 6 -6 -5 -1 -9
5 -20 11 -24 9 -6 5 -10 -12 -14 -38 -10 -57 -1 -71 32 -17 42 -2 79 41 100
42 21 33 21 74 4z"/>
<path d="M2841 10434 c0 -11 3 -14 6 -6 3 7 2 16 -1 19 -3 4 -6 -2 -5 -13z"/>
<path d="M2951 10394 c0 -11 3 -14 6 -6 3 7 2 16 -1 19 -3 4 -6 -2 -5 -13z"/>
<path d="M3001 10384 c0 -11 3 -14 6 -6 3 7 2 16 -1 19 -3 4 -6 -2 -5 -13z"/>
<path d="M2831 10374 c0 -11 3 -14 6 -6 3 7 2 16 -1 19 -3 4 -6 -2 -5 -13z"/>
<path d="M2861 10364 c0 -11 3 -14 6 -6 3 7 2 16 -1 19 -3 4 -6 -2 -5 -13z"/>
<path d="M2961 10354 c0 -11 3 -14 6 -6 3 7 2 16 -1 19 -3 4 -6 -2 -5 -13z"/>
<path d="M3011 10344 c0 -11 3 -14 6 -6 3 7 2 16 -1 19 -3 4 -6 -2 -5 -13z"/>
<path d="M2901 10334 c0 -11 3 -14 6 -6 3 7 2 16 -1 19 -3 4 -6 -2 -5 -13z"/>
<path d="M2851 10304 c0 -11 3 -14 6 -6 3 7 2 16 -1 19 -3 4 -6 -2 -5 -13z"/>
<path d="M3021 10304 c0 -11 3 -14 6 -6 3 7 2 16 -1 19 -3 4 -6 -2 -5 -13z"/>
<path d="M2881 10294 c0 -11 3 -14 6 -6 3 7 2 16 -1 19 -3 4 -6 -2 -5 -13z"/>
<path d="M2911 10294 c0 -11 3 -14 6 -6 3 7 2 16 -1 19 -3 4 -6 -2 -5 -13z"/>
<path d="M2981 10274 c0 -11 3 -14 6 -6 3 7 2 16 -1 19 -3 4 -6 -2 -5 -13z"/>
<path d="M3031 10264 c0 -11 3 -14 6 -6 3 7 2 16 -1 19 -3 4 -6 -2 -5 -13z"/>
<path d="M2891 10254 c0 -11 3 -14 6 -6 3 7 2 16 -1 19 -3 4 -6 -2 -5 -13z"/>
<path d="M2921 10254 c0 -11 3 -14 6 -6 3 7 2 16 -1 19 -3 4 -6 -2 -5 -13z"/>
<path d="M2871 10234 c0 -11 3 -14 6 -6 3 7 2 16 -1 19 -3 4 -6 -2 -5 -13z"/>
<path d="M2991 10234 c0 -11 3 -14 6 -6 3 7 2 16 -1 19 -3 4 -6 -2 -5 -13z"/>
<path d="M2901 10214 c0 -11 3 -14 6 -6 3 7 2 16 -1 19 -3 4 -6 -2 -5 -13z"/>
<path d="M2931 10214 c0 -11 3 -14 6 -6 3 7 2 16 -1 19 -3 4 -6 -2 -5 -13z"/>
<path d="M3041 10214 c0 -11 3 -14 6 -6 3 7 2 16 -1 19 -3 4 -6 -2 -5 -13z"/>
<path d="M2881 10194 c0 -11 3 -14 6 -6 3 7 2 16 -1 19 -3 4 -6 -2 -5 -13z"/>
<path d="M3001 10194 c0 -11 3 -14 6 -6 3 7 2 16 -1 19 -3 4 -6 -2 -5 -13z"/>
<path d="M2911 10174 c0 -11 3 -14 6 -6 3 7 2 16 -1 19 -3 4 -6 -2 -5 -13z"/>
<path d="M2941 10164 c0 -11 3 -14 6 -6 3 7 2 16 -1 19 -3 4 -6 -2 -5 -13z"/>
<path d="M3051 10164 c0 -11 3 -14 6 -6 3 7 2 16 -1 19 -3 4 -6 -2 -5 -13z"/>
<path d="M2892 10155 c0 -11 4 -31 8 -45 6 -20 8 -21 8 -5 0 11 -4 31 -8 45
-6 20 -8 21 -8 5z"/>
<path d="M3012 10150 c0 -14 2 -19 5 -12 2 6 2 18 0 25 -3 6 -5 1 -5 -13z"/>
<path d="M1415 10141 c-9 -16 54 -56 164 -106 123 -55 182 -91 274 -169 37
-31 67 -53 67 -48 0 10 -78 77 -215 186 -73 58 -233 146 -265 146 -10 0 -21
-4 -25 -9z"/>
<path d="M2922 10135 c0 -11 4 -31 8 -45 6 -20 8 -21 8 -5 0 11 -4 31 -8 45
-6 20 -8 21 -8 5z"/>
<path d="M2981 10134 c0 -11 3 -14 6 -6 3 7 2 16 -1 19 -3 4 -6 -2 -5 -13z"/>
<path d="M2951 10124 c0 -11 3 -14 6 -6 3 7 2 16 -1 19 -3 4 -6 -2 -5 -13z"/>
<path d="M3061 10114 c0 -11 3 -14 6 -6 3 7 2 16 -1 19 -3 4 -6 -2 -5 -13z"/>
<path d="M3022 10100 c0 -14 2 -19 5 -12 2 6 2 18 0 25 -3 6 -5 1 -5 -13z"/>
<path d="M2961 10074 c0 -11 3 -14 6 -6 3 7 2 16 -1 19 -3 4 -6 -2 -5 -13z"/>
<path d="M2911 10064 c0 -11 3 -14 6 -6 3 7 2 16 -1 19 -3 4 -6 -2 -5 -13z"/>
<path d="M3071 10064 c0 -11 3 -14 6 -6 3 7 2 16 -1 19 -3 4 -6 -2 -5 -13z"/>
<path d="M1043 10055 c-64 -28 -74 -106 -19 -161 28 -28 41 -34 78 -34 87 1
172 62 172 125 0 19 4 35 8 35 38 0 288 -57 354 -81 98 -36 223 -109 302 -176
57 -48 59 -45 15 15 -13 18 -28 30 -32 28 -4 -3 -30 11 -57 31 -73 52 -353
188 -428 207 -123 31 -236 12 -244 -41 -7 -45 -97 -98 -139 -82 -23 8 -37 44
-31 75 1 9 15 26 30 37 25 19 28 19 52 3 42 -27 33 -63 -14 -56 -12 1 -12 -1
-3 -11 20 -20 63 4 63 35 0 24 -23 56 -40 56 -5 0 -14 2 -22 5 -7 2 -27 -2
-45 -10z"/>
<path d="M3032 10050 c0 -14 2 -19 5 -12 2 6 2 18 0 25 -3 6 -5 1 -5 -13z"/>
<path d="M2941 10044 c0 -11 3 -14 6 -6 3 7 2 16 -1 19 -3 4 -6 -2 -5 -13z"/>
<path d="M3001 10044 c0 -11 3 -14 6 -6 3 7 2 16 -1 19 -3 4 -6 -2 -5 -13z"/>
<path d="M2971 10034 c0 -11 3 -14 6 -6 3 7 2 16 -1 19 -3 4 -6 -2 -5 -13z"/>
<path d="M4407 10026 c-70 -25 -117 -88 -117 -154 0 -39 49 -105 95 -126 45
-22 86 -9 104 31 10 23 9 29 -14 53 -22 23 -24 32 -19 73 8 54 22 63 90 52 57
-8 84 -36 84 -89 0 -104 -115 -232 -310 -346 -371 -217 -538 -357 -617 -520
-23 -47 -45 -98 -48 -115 -4 -25 -3 -24 9 8 96 245 238 370 741 652 28 16 78
55 112 88 108 104 156 202 133 273 -9 27 -28 46 -78 79 -79 51 -113 59 -165
41z"/>
<path d="M3082 10010 c0 -14 2 -19 5 -12 2 6 2 18 0 25 -3 6 -5 1 -5 -13z"/>
<path d="M2952 10005 c0 -11 4 -31 8 -45 6 -20 8 -21 8 -5 0 11 -4 31 -8 45
-6 20 -8 21 -8 5z"/>
<path d="M3042 10000 c0 -14 2 -19 5 -12 2 6 2 18 0 25 -3 6 -5 1 -5 -13z"/>
<path d="M3011 9994 c0 -11 3 -14 6 -6 3 7 2 16 -1 19 -3 4 -6 -2 -5 -13z"/>
<path d="M2981 9984 c0 -11 3 -14 6 -6 3 7 2 16 -1 19 -3 4 -6 -2 -5 -13z"/>
<path d="M3021 9954 c0 -11 3 -14 6 -6 3 7 2 16 -1 19 -3 4 -6 -2 -5 -13z"/>
<path d="M3052 9945 c0 -16 2 -22 5 -12 2 9 2 23 0 30 -3 6 -5 -1 -5 -18z"/>
<path d="M3092 9950 c0 -14 2 -19 5 -12 2 6 2 18 0 25 -3 6 -5 1 -5 -13z"/>
<path d="M2992 9940 c0 -14 2 -19 5 -12 2 6 2 18 0 25 -3 6 -5 1 -5 -13z"/>
<path d="M2972 9915 c0 -11 4 -31 8 -45 6 -20 8 -21 8 -5 0 11 -4 31 -8 45 -6
20 -8 21 -8 5z"/>
<path d="M3031 9904 c0 -11 3 -14 6 -6 3 7 2 16 -1 19 -3 4 -6 -2 -5 -13z"/>
<path d="M3001 9894 c0 -11 3 -14 6 -6 3 7 2 16 -1 19 -3 4 -6 -2 -5 -13z"/>
<path d="M3062 9890 c0 -14 2 -19 5 -12 2 6 2 18 0 25 -3 6 -5 1 -5 -13z"/>
<path d="M3102 9890 c0 -14 2 -19 5 -12 2 6 2 18 0 25 -3 6 -5 1 -5 -13z"/>
<path d="M3012 9850 c0 -14 2 -19 5 -12 2 6 2 18 0 25 -3 6 -5 1 -5 -13z"/>
<path d="M3041 9854 c0 -11 3 -14 6 -6 3 7 2 16 -1 19 -3 4 -6 -2 -5 -13z"/>
<path d="M3072 9840 c0 -14 2 -19 5 -12 2 6 2 18 0 25 -3 6 -5 1 -5 -13z"/>
<path d="M3112 9830 c0 -14 2 -19 5 -12 2 6 2 18 0 25 -3 6 -5 1 -5 -13z"/>
<path d="M2991 9824 c0 -11 3 -14 6 -6 3 7 2 16 -1 19 -3 4 -6 -2 -5 -13z"/>
<path d="M3051 9814 c0 -11 3 -14 6 -6 3 7 2 16 -1 19 -3 4 -6 -2 -5 -13z"/>
<path d="M3021 9804 c0 -11 3 -14 6 -6 3 7 2 16 -1 19 -3 4 -6 -2 -5 -13z"/>
<path d="M3082 9790 c0 -14 2 -19 5 -12 2 6 2 18 0 25 -3 6 -5 1 -5 -13z"/>
<path d="M3001 9792 c-1 -19 32 -148 36 -137 1 6 -6 42 -16 80 -11 39 -20 64
-20 57z"/>
<path d="M3122 9770 c0 -14 2 -19 5 -12 2 6 2 18 0 25 -3 6 -5 1 -5 -13z"/>
<path d="M3031 9764 c0 -11 3 -14 6 -6 3 7 2 16 -1 19 -3 4 -6 -2 -5 -13z"/>
<path d="M3061 9764 c0 -11 3 -14 6 -6 3 7 2 16 -1 19 -3 4 -6 -2 -5 -13z"/>
<path d="M3092 9740 c0 -14 2 -19 5 -12 2 6 2 18 0 25 -3 6 -5 1 -5 -13z"/>
<path d="M3042 9720 c0 -14 2 -19 5 -12 2 6 2 18 0 25 -3 6 -5 1 -5 -13z"/>
<path d="M3071 9724 c0 -11 3 -14 6 -6 3 7 2 16 -1 19 -3 4 -6 -2 -5 -13z"/>
<path d="M3132 9715 c0 -16 2 -22 5 -12 2 9 2 23 0 30 -3 6 -5 -1 -5 -18z"/>
<path d="M1140 9719 c0 -13 49 -33 166 -70 88 -28 295 -116 244 -105 -14 4
-86 22 -160 42 -148 40 -330 58 -345 35 -4 -7 -5 -14 -3 -17 3 -2 76 -8 164
-14 130 -7 183 -16 290 -44 71 -19 142 -40 157 -45 15 -6 27 -8 27 -6 0 9
-423 212 -465 224 -50 14 -75 14 -75 0z"/>
<path d="M3102 9690 c0 -14 2 -19 5 -12 2 6 2 18 0 25 -3 6 -5 1 -5 -13z"/>
<path d="M3051 9674 c0 -11 3 -14 6 -6 3 7 2 16 -1 19 -3 4 -6 -2 -5 -13z"/>
<path d="M3081 9674 c0 -11 3 -14 6 -6 3 7 2 16 -1 19 -3 4 -6 -2 -5 -13z"/>
<path d="M3142 9660 c0 -14 2 -19 5 -12 2 6 2 18 0 25 -3 6 -5 1 -5 -13z"/>
<path d="M3112 9645 c0 -11 4 -31 8 -45 6 -20 8 -21 8 -5 0 11 -4 31 -8 45 -6
20 -8 21 -8 5z"/>
<path d="M3066 9620 c4 -19 11 -44 15 -55 6 -14 7 -9 3 15 -4 19 -11 44 -15
55 -6 14 -7 9 -3 -15z"/>
<path d="M3091 9634 c0 -11 3 -14 6 -6 3 7 2 16 -1 19 -3 4 -6 -2 -5 -13z"/>
<path d="M3041 9624 c0 -11 3 -14 6 -6 3 7 2 16 -1 19 -3 4 -6 -2 -5 -13z"/>
<path d="M3152 9610 c0 -14 4 -36 8 -50 6 -20 8 -21 8 -5 0 11 -4 34 -8 50 -7
27 -8 27 -8 5z"/>
<path d="M3101 9594 c0 -11 3 -14 6 -6 3 7 2 16 -1 19 -3 4 -6 -2 -5 -13z"/>
<path d="M3111 9554 c0 -11 3 -14 6 -6 3 7 2 16 -1 19 -3 4 -6 -2 -5 -13z"/>
<path d="M3131 9554 c0 -11 3 -14 6 -6 3 7 2 16 -1 19 -3 4 -6 -2 -5 -13z"/>
<path d="M3092 9530 c0 -8 6 -31 13 -50 7 -19 13 -28 13 -20 0 8 -6 31 -13 50
-7 19 -13 28 -13 20z"/>
<path d="M3137 9509 c-9 -34 -7 -47 4 -24 7 15 8 12 4 -15 -4 -27 -2 -31 6
-20 8 12 9 8 5 -15 -5 -23 -4 -27 5 -15 8 12 9 8 5 -15 -5 -23 -4 -27 5 -15 8
12 9 8 5 -15 -5 -24 -4 -27 5 -15 9 12 10 11 6 -8 -8 -33 2 -58 15 -40 7 9 8
5 4 -12 -5 -28 17 -79 28 -62 3 6 1 23 -4 37 -6 15 -8 35 -5 45 3 9 -1 34 -9
56 -8 21 -15 34 -15 28 -1 -6 4 -25 10 -43 6 -18 9 -35 6 -38 -3 -3 -21 43
-40 103 -27 85 -35 102 -40 83z"/>
<path d="M3172 9515 c0 -21 25 -107 27 -90 0 6 -6 33 -13 60 -8 28 -14 41 -14
30z"/>
<path d="M6098 9430 c-15 -30 -60 -93 -100 -139 -145 -167 -190 -228 -234
-316 -63 -128 -88 -234 -82 -356 l5 -96 -56 25 c-44 20 -76 27 -148 30 -178 8
-286 -47 -478 -244 -66 -68 -127 -124 -135 -124 -8 0 24 -19 70 -43 47 -24
137 -71 200 -104 63 -34 140 -69 170 -79 l55 -18 -95 -18 c-106 -20 -140 -18
-140 12 0 29 -10 25 -73 -28 -39 -34 -84 -59 -145 -82 -110 -41 -260 -111
-322 -149 -46 -28 -50 -29 -86 -16 -56 20 -126 18 -195 -5 -184 -62 -315 -234
-350 -460 -9 -63 -19 -85 -80 -177 -37 -58 -70 -111 -72 -117 -2 -6 -7 -8 -11
-4 -4 3 -3 16 4 27 6 12 7 21 1 21 -5 0 -11 -6 -14 -13 -2 -7 -28 -19 -56 -26
-87 -22 -194 -101 -351 -260 -80 -80 -195 -204 -255 -276 -61 -71 -141 -156
-180 -188 -77 -64 -219 -139 -305 -161 -29 -7 -56 -18 -57 -23 -2 -6 36 -13
94 -16 374 -25 676 49 873 215 38 32 71 58 73 58 2 0 0 -21 -4 -47 -12 -72
-11 -228 2 -278 10 -39 9 -48 -10 -78 -33 -54 -158 -167 -251 -229 -92 -60
-240 -143 -240 -135 0 3 49 44 109 91 166 130 258 246 264 332 2 29 1 29 -78
46 -101 21 -222 23 -266 4 -83 -35 -143 -102 -268 -301 -91 -144 -156 -218
-215 -245 l-39 -18 40 -25 c106 -67 236 -123 382 -164 9 -2 -3 -12 -27 -24
-51 -25 -119 -99 -151 -163 -79 -159 -68 -309 39 -547 28 -61 50 -117 50 -125
0 -22 14 -16 37 15 12 15 82 73 155 129 154 115 215 176 256 250 l29 53 35
-48 c20 -26 44 -62 55 -80 l19 -32 35 48 c19 27 65 86 102 132 84 104 117 170
124 248 7 78 -10 139 -54 191 -30 34 -79 70 -97 70 -9 0 -54 -158 -70 -245 -9
-44 -18 -91 -20 -105 -3 -14 -3 60 0 164 l4 189 43 46 c23 25 53 64 67 86 13
22 25 42 27 44 9 12 50 -43 79 -107 19 -40 50 -98 69 -128 43 -67 46 -120 7
-118 -13 0 -21 -4 -18 -10 75 -166 100 -275 93 -393 -8 -141 -54 -227 -161
-299 -28 -19 -46 -34 -41 -34 16 0 85 48 128 89 41 38 87 119 106 186 21 73
30 205 21 304 -5 52 -8 96 -7 97 1 2 17 -10 36 -25 33 -27 33 -28 17 -59 -39
-76 1 -150 87 -159 44 -5 49 -3 82 32 l35 37 73 -30 c212 -88 480 -116 692
-74 50 10 114 16 143 14 82 -6 138 27 278 166 164 162 205 227 255 402 20 72
24 107 24 235 0 126 -4 164 -23 234 -75 274 -249 487 -494 600 -115 54 -217
75 -358 75 -192 -1 -313 -47 -433 -165 -120 -119 -166 -265 -134 -424 36 -177
145 -323 289 -389 103 -47 165 -59 272 -54 108 6 181 33 226 84 35 41 44 71
37 126 -13 100 -157 149 -157 54 l0 -34 -69 14 c-143 27 -221 84 -262 194 -46
122 6 214 144 255 107 32 282 10 407 -51 88 -44 214 -164 269 -256 101 -173
134 -371 90 -543 l-13 -50 -13 74 c-8 41 -31 109 -51 150 l-37 76 -3 -57 c-2
-32 -5 -58 -7 -58 -2 0 -28 25 -57 56 -29 31 -65 65 -80 76 l-28 19 10 -26 c5
-14 10 -57 10 -95 0 -90 -26 -158 -94 -251 -67 -90 -107 -184 -114 -269 l-5
-64 103 104 c56 58 122 131 146 164 l44 58 0 -48 c1 -47 1 -48 17 -29 15 19
15 19 9 -10 -4 -16 -26 -68 -49 -114 -41 -82 -44 -86 -112 -122 -116 -63 -214
-83 -395 -83 -199 -1 -311 22 -495 100 -44 18 -64 33 -73 54 -14 30 -65 60
-104 60 -16 0 -44 21 -86 63 l-63 64 -28 129 c-16 71 -56 242 -90 379 -80 330
-99 426 -111 560 -10 119 -7 142 32 220 55 108 81 227 68 310 -8 55 2 83 73
194 l34 53 7 -63 c4 -35 20 -131 36 -214 17 -82 38 -199 48 -259 9 -60 22
-111 28 -113 5 -2 15 29 22 69 28 163 136 435 332 835 65 133 123 258 130 277
8 25 18 36 31 36 10 0 19 6 19 13 0 22 294 167 308 152 3 -3 -6 -18 -20 -33
-78 -84 -170 -259 -212 -403 -36 -126 -42 -178 -8 -79 142 419 480 631 967
606 405 -21 709 -100 935 -244 92 -58 180 -134 226 -195 41 -55 58 -63 33 -15
-26 48 7 21 116 -99 147 -161 233 -274 289 -383 53 -102 68 -156 68 -235 l0
-60 23 50 c20 42 24 47 30 30 4 -11 21 -51 37 -88 69 -160 134 -392 168 -602
23 -140 25 -175 8 -175 -8 0 -32 59 -57 138 -24 75 -63 183 -87 238 -24 56
-48 124 -55 150 -19 78 -71 183 -129 259 -29 39 -84 115 -121 170 -99 146
-184 248 -297 356 -114 110 -221 184 -331 230 -346 144 -838 54 -1054 -192
-74 -84 -127 -216 -127 -315 0 -40 -2 -43 -62 -82 -128 -84 -289 -142 -391
-142 -93 0 -231 76 -264 145 -22 46 -10 82 37 112 19 12 41 29 49 37 12 12 17
10 38 -15 53 -63 123 -21 123 74 0 212 -328 204 -430 -10 -49 -101 -22 -225
63 -298 64 -55 134 -77 262 -83 196 -8 334 27 487 123 49 32 90 56 91 54 2 -2
13 -40 26 -84 33 -118 82 -197 182 -298 53 -53 93 -102 99 -123 26 -78 138
-117 192 -66 33 31 45 28 67 -16 30 -59 91 -78 151 -47 35 18 50 43 50 83 0
36 25 49 50 27 9 -8 32 -15 52 -15 69 0 115 84 72 132 -23 24 -3 51 29 39 55
-20 113 42 89 95 -7 13 -23 29 -37 34 -15 6 -25 17 -25 30 0 17 3 18 26 10 47
-18 87 34 59 77 -15 22 -22 25 -54 20 -36 -4 -39 -3 -50 30 -30 81 -152 163
-243 163 -27 0 -48 -4 -48 -8 0 -5 26 -16 58 -25 169 -47 242 -201 170 -359
-22 -48 -33 -60 -66 -74 -27 -10 -44 -25 -53 -45 -6 -17 -22 -37 -35 -46 -21
-13 -26 -13 -46 1 -38 27 -85 20 -117 -15 -40 -43 -71 -34 -71 20 0 73 -62
113 -139 91 -19 -5 -44 -19 -56 -30 l-23 -21 -62 58 c-105 96 -183 235 -205
363 -6 34 -4 37 101 124 59 49 104 81 100 71 -34 -90 -30 -181 13 -271 69
-144 168 -212 271 -184 42 11 110 79 109 108 0 14 -2 13 -9 -4 -13 -32 -76
-82 -113 -89 -85 -16 -171 46 -230 165 -41 82 -48 177 -19 260 22 64 68 105
185 163 101 50 177 67 293 67 263 0 420 -66 614 -259 267 -266 518 -690 695
-1176 l33 -90 -62 -77 c-73 -91 -175 -259 -214 -352 -15 -36 -29 -66 -32 -66
-3 0 -15 22 -28 49 -31 68 -100 157 -177 230 -66 61 -243 187 -251 178 -3 -3
5 -25 17 -51 13 -25 21 -48 18 -50 -3 -3 -54 10 -114 29 -61 19 -111 35 -112
35 -2 0 12 -21 31 -47 65 -91 118 -219 176 -419 21 -76 92 -193 151 -253 33
-33 87 -71 101 -71 3 0 -3 24 -14 53 -11 28 -33 111 -48 182 -16 72 -38 158
-48 193 -11 34 -17 62 -14 62 3 0 24 -17 45 -37 l38 -38 -7 30 c-4 21 -3 27 4
20 26 -24 121 -188 142 -244 l23 -61 -27 -123 c-42 -195 -47 -241 -53 -442 -4
-143 -1 -220 11 -312 9 -67 19 -128 22 -136 10 -27 -62 2 -75 30 -6 13 -27 31
-46 39 -31 13 -39 12 -72 -1 -20 -8 -38 -13 -41 -10 -3 2 18 25 45 49 58 53
100 137 113 227 37 261 -204 515 -457 483 -50 -6 -56 -5 -46 8 24 28 61 144
73 224 22 148 -19 310 -115 454 -49 73 -278 320 -288 310 -3 -3 7 -32 24 -65
86 -175 89 -339 15 -683 -48 -224 -57 -328 -35 -402 11 -37 10 -41 -39 -114
-51 -76 -85 -152 -97 -219 -4 -20 -11 -37 -15 -37 -12 0 -69 153 -82 219 -6
31 -8 99 -5 154 8 126 -8 130 -53 15 -59 -156 -84 -256 -105 -430 l-6 -48
-144 0 c-486 0 -1202 -109 -2100 -320 -505 -119 -811 -138 -1166 -74 l-86 16
-52 58 c-89 102 -267 207 -398 234 l-52 11 -6 149 c-5 152 6 263 31 323 15 37
11 39 -40 18 l-37 -15 7 27 c12 57 27 99 45 130 l18 32 -56 -24 c-61 -28 -118
-60 -145 -83 -17 -14 -18 -13 -18 14 0 59 -63 124 -120 124 -34 0 -75 -26 -90
-57 -14 -27 -14 -27 -18 -5 -2 13 7 44 21 70 13 26 28 67 32 92 8 47 36 98 92
168 31 38 39 42 77 42 24 0 63 7 87 15 l43 16 -22 -24 c-28 -30 -29 -80 -2
-107 29 -29 94 -27 114 2 38 54 6 128 -56 128 l-31 0 39 28 c48 35 96 89 126
141 24 42 21 41 179 66 60 9 179 -13 246 -45 104 -51 191 -166 242 -317 25
-75 26 -103 6 -172 -11 -34 -30 -67 -59 -96 -40 -42 -46 -45 -95 -45 -32 0
-67 8 -90 20 -43 22 -96 83 -112 129 -10 28 -8 34 30 77 47 54 51 77 16 100
-46 30 -137 -6 -175 -68 -24 -40 -26 -107 -4 -149 8 -17 17 -51 19 -75 8 -98
94 -191 208 -226 218 -66 410 72 463 332 55 273 -93 545 -341 623 -63 20 -90
22 -271 21 l-200 -1 7 56 c15 107 -17 257 -77 359 -36 62 -136 165 -204 212
-30 20 -89 54 -129 75 -41 20 -92 48 -113 61 l-38 24 0 -71 c0 -90 -25 -167
-127 -380 -70 -148 -77 -170 -77 -224 0 -72 27 -138 110 -263 l56 -84 43 42
c102 100 159 245 160 406 0 111 7 115 26 16 29 -153 -27 -409 -114 -524 -14
-18 -36 -54 -50 -80 l-25 -47 -32 65 c-38 78 -140 184 -225 236 -100 61 -202
90 -335 95 l-115 5 47 -32 c27 -17 50 -35 53 -40 2 -4 -44 -20 -103 -35 -108
-28 -153 -44 -122 -45 26 0 149 -68 210 -115 59 -45 106 -108 155 -204 55
-109 234 -251 317 -251 l30 0 -43 47 c-26 30 -68 103 -111 192 -38 80 -82 164
-98 188 -16 24 -27 43 -24 43 2 0 27 -11 54 -25 53 -27 57 -26 38 8 -11 21 -9
20 23 -4 50 -38 173 -183 205 -242 26 -48 28 -61 29 -172 2 -87 8 -144 24
-208 19 -74 21 -93 11 -118 -7 -16 -10 -45 -6 -66 3 -21 8 -65 10 -99 2 -33 7
-71 11 -83 6 -21 4 -22 -17 -16 -56 18 -154 68 -215 111 -55 37 -63 41 -50 20
9 -14 48 -97 87 -186 106 -246 184 -367 306 -479 131 -119 295 -177 484 -168
138 6 203 30 279 104 l56 55 265 3 c180 1 305 7 390 19 202 27 490 74 715 116
437 82 665 109 985 115 l235 5 -80 -19 c-133 -32 -230 -72 -473 -199 -281
-146 -407 -227 -611 -390 -231 -185 -253 -200 -308 -210 -40 -6 -48 -11 -47
-29 0 -17 -15 -29 -74 -58 -202 -98 -376 -85 -489 38 -54 58 -69 111 -54 187
22 110 98 176 201 174 105 -2 108 -3 102 -50 -3 -33 0 -46 17 -63 26 -26 51
-27 102 -1 52 27 79 72 79 133 0 88 -43 147 -140 190 -57 26 -156 27 -227 3
-73 -24 -145 -92 -185 -174 -29 -59 -33 -76 -33 -152 0 -77 3 -92 36 -160 62
-129 153 -200 287 -223 92 -16 195 7 331 75 l106 52 320 1 c287 1 332 3 440
23 253 47 405 97 579 192 l93 50 14 -26 c35 -67 152 -140 260 -164 147 -33
281 68 281 210 0 78 -36 128 -107 145 -35 8 -29 0 17 -23 24 -12 37 -29 47
-58 13 -37 13 -46 -3 -88 -49 -129 -174 -157 -342 -77 -65 31 -124 76 -123 94
0 7 46 41 101 77 118 76 232 179 282 254 20 30 43 56 52 60 49 19 269 0 422
-36 l93 -21 35 -74 c60 -126 151 -251 269 -369 163 -164 299 -244 442 -261 54
-6 65 -12 158 -88 55 -45 154 -119 220 -165 l120 -82 -90 6 c-73 6 -88 5 -77
-5 21 -22 14 -29 -28 -29 -22 0 -40 -3 -39 -7 0 -12 116 -92 179 -126 47 -25
64 -28 113 -25 36 3 64 11 74 21 16 16 15 17 -17 17 -18 0 -65 14 -103 32 -55
25 -65 34 -51 39 61 24 184 -9 351 -94 l132 -67 42 -87 c139 -286 510 -447
712 -310 15 10 27 22 27 26 0 5 -35 10 -78 13 -120 7 -246 75 -313 169 l-21
30 37 -15 c58 -25 56 -18 -4 12 -48 24 -59 36 -99 105 -24 43 -42 80 -40 82 2
3 92 -60 199 -139 204 -150 531 -381 611 -431 28 -18 48 -37 48 -48 0 -10 12
-29 26 -44 21 -21 32 -24 61 -20 49 8 83 -15 83 -57 0 -43 24 -73 69 -87 31
-9 43 -8 67 4 39 21 74 5 74 -35 0 -90 94 -145 174 -103 39 21 78 5 105 -41
37 -62 110 -89 174 -65 18 7 48 2 118 -20 128 -40 270 -68 354 -70 39 0 151 2
249 6 139 6 177 5 171 -5 -5 -8 2 -7 21 3 16 8 58 20 93 26 72 14 201 59 201
71 0 4 -40 -3 -90 -16 -201 -52 -391 -54 -629 -4 -108 22 -297 77 -326 95 -11
7 -32 15 -46 19 -19 4 -30 17 -43 49 -36 94 -118 131 -187 84 -35 -24 -36 -24
-71 -6 -19 10 -51 34 -70 53 -27 27 -44 36 -70 36 -58 0 -337 178 -617 394
-197 152 -223 178 -257 260 -41 102 -80 154 -271 357 -176 190 -251 276 -296
343 l-26 39 -5 -34 c-3 -19 -7 -56 -8 -84 l-3 -50 -100 100 c-55 55 -113 116
-129 135 -30 37 -151 249 -145 254 2 1 19 13 37 25 46 32 65 74 59 129 -9 79
-92 134 -170 111 -26 -7 -34 -6 -44 8 -21 28 -15 43 17 43 35 0 80 20 101 46
8 9 16 40 19 69 l5 52 105 -39 c58 -21 176 -66 262 -99 138 -54 157 -64 163
-88 29 -116 181 -440 280 -596 32 -49 89 -142 128 -205 147 -241 261 -385 462
-585 82 -82 200 -188 260 -235 61 -46 148 -120 194 -163 126 -118 203 -173
336 -238 124 -60 262 -104 369 -115 34 -3 99 -17 146 -30 220 -60 484 -90 733
-81 81 2 147 3 145 1 -2 -2 -44 -17 -93 -34 -50 -18 -191 -79 -315 -137 l-225
-105 -325 5 c-400 6 -601 27 -969 98 -251 49 -451 113 -703 224 l-108 47 0 62
c0 83 -39 164 -112 232 -60 57 -93 76 -177 106 -113 39 -290 33 -384 -12 l-40
-20 -60 34 -59 34 28 13 c16 8 37 31 48 52 16 34 17 42 4 75 -19 52 -73 78
-124 62 -46 -15 -77 -63 -70 -107 3 -18 4 -33 3 -33 -1 0 -65 34 -142 75 -795
429 -1352 607 -1900 608 -122 0 -197 -5 -265 -18 -52 -9 -114 -18 -138 -20
-24 -1 -55 -11 -70 -22 -15 -11 -59 -36 -97 -56 -196 -103 -348 -299 -406
-522 -17 -67 -20 -104 -17 -225 l3 -144 -48 -36 c-43 -33 -153 -80 -185 -80
-7 0 2 14 20 31 23 21 27 29 14 24 -12 -3 3 19 36 52 52 56 77 92 98 148 9 23
8 24 -15 15 -54 -21 -110 -54 -193 -115 -48 -35 -116 -81 -151 -102 l-65 -38
39 -10 38 -11 -40 -31 c-22 -18 -51 -37 -66 -44 -15 -7 -27 -16 -27 -20 0 -9
134 -24 226 -24 l71 0 -50 -45 c-28 -25 -83 -95 -122 -155 -40 -61 -85 -120
-101 -132 l-28 -21 39 -17 c159 -68 198 -79 300 -79 90 -1 106 2 157 27 119
58 186 174 158 273 -7 24 -14 44 -15 44 -2 0 -78 -39 -169 -86 -91 -47 -166
-83 -166 -80 0 2 37 31 83 63 88 62 187 152 187 170 0 15 -60 52 -99 59 l-31
6 43 27 c23 15 57 44 74 64 l33 37 31 -62 c47 -94 108 -175 190 -253 92 -87
97 -96 159 -245 l49 -121 -41 32 c-39 32 -40 32 -34 8 l7 -24 -23 26 c-78 88
-141 173 -167 224 l-29 60 -11 -28 c-16 -41 -14 -76 9 -149 26 -85 64 -140
163 -234 80 -78 217 -188 224 -181 2 2 -4 21 -12 42 -9 20 -14 39 -12 41 2 3
41 -9 86 -25 44 -16 81 -28 81 -27 0 2 -11 23 -25 48 -13 24 -42 91 -64 149
-21 57 -48 128 -60 156 l-21 53 53 -22 c233 -94 447 -102 651 -23 237 92 369
168 481 280 146 145 206 285 206 475 0 129 -21 213 -87 349 -49 101 -66 124
-142 200 -158 157 -332 231 -542 231 -177 0 -308 -49 -407 -152 -134 -140
-184 -326 -132 -493 17 -55 31 -78 77 -125 61 -62 101 -80 180 -80 87 0 159
56 169 130 6 40 4 43 -51 94 -61 58 -69 71 -32 62 20 -5 30 2 60 44 l36 50 95
0 c110 0 194 -25 210 -62 8 -17 18 -23 44 -23 29 -1 43 -11 98 -69 38 -41 78
-98 100 -144 34 -68 38 -83 38 -156 0 -53 -7 -101 -19 -139 l-19 -58 -22 28
c-42 51 -139 28 -160 -38 -10 -30 25 -89 61 -107 32 -15 33 -17 18 -34 -16
-17 -18 -17 -43 1 -38 27 -98 42 -126 31 -47 -18 -75 -131 -40 -160 8 -7 15
-16 15 -20 0 -11 -132 -64 -200 -81 -32 -8 -102 -14 -170 -13 -93 1 -132 6
-203 28 -189 57 -338 147 -463 279 -116 123 -193 265 -194 354 0 24 -7 60 -16
82 -8 21 -14 58 -12 82 l3 44 23 -75 c35 -111 88 -194 186 -288 95 -91 178
-148 312 -215 166 -83 384 -178 394 -172 6 3 -13 24 -40 46 -103 81 -206 244
-369 583 -102 211 -164 360 -176 429 -7 35 -6 37 19 37 15 0 38 11 51 25 53
52 16 160 -58 167 l-32 3 36 22 c47 29 51 29 71 -7 18 -33 70 -60 113 -60 13
0 39 13 57 29 30 26 33 35 35 88 1 57 2 58 35 65 91 19 274 28 408 18 281 -20
483 -61 765 -155 258 -85 457 -171 796 -343 l287 -145 -24 -35 c-28 -41 -29
-53 -9 -91 17 -34 62 -55 99 -45 30 7 66 48 66 76 0 17 3 17 50 -7 28 -14 50
-29 50 -33 0 -4 -17 -18 -37 -32 -104 -70 -206 -202 -328 -420 -32 -58 -76
-131 -97 -162 l-38 -57 47 29 c27 16 82 40 123 54 136 44 230 59 545 86 131
11 398 67 472 100 44 19 47 19 65 3 14 -12 21 -14 26 -6 5 9 20 6 52 -8 312
-140 622 -226 1005 -278 261 -36 362 -43 665 -50 l295 -6 -110 -37 c-116 -39
-260 -68 -335 -68 -114 -1 -121 -31 -12 -55 42 -9 160 -36 262 -60 327 -78
403 -89 610 -89 172 -1 192 1 290 27 279 75 536 264 623 457 13 30 20 69 21
115 1 48 7 78 18 94 21 30 15 40 -9 18 -15 -13 -26 -14 -66 -5 -26 5 -45 14
-42 19 4 5 57 33 119 62 255 122 427 278 513 467 74 162 96 201 136 235 65 56
142 79 252 76 l40 -1 -45 -21 c-25 -12 -39 -23 -32 -26 8 -3 -5 -18 -35 -38
-26 -18 -80 -67 -119 -109 l-70 -76 40 0 c30 0 72 16 156 58 l115 57 102 0
102 0 -31 32 -31 32 34 5 c19 3 60 7 92 9 l57 2 -83 67 c-100 81 -159 115
-230 134 -59 16 -148 18 -192 5 l-30 -8 0 86 c0 77 -4 94 -32 151 -88 179
-242 270 -457 270 -261 0 -498 -134 -598 -337 -27 -55 -33 -80 -36 -152 -2
-47 0 -97 6 -110 8 -22 10 -19 16 28 8 59 42 136 74 165 l21 18 -4 -112 c-5
-125 5 -159 53 -184 27 -14 122 -32 122 -24 0 3 -8 20 -17 39 -10 19 -18 54
-18 77 0 36 5 48 29 69 28 24 34 25 125 21 70 -3 116 -12 170 -31 65 -23 76
-24 94 -12 24 17 47 9 119 -40 29 -20 54 -32 56 -26 5 15 -16 76 -49 142 -42
85 -111 134 -227 164 l-57 15 62 -4 c122 -8 238 -89 291 -204 21 -46 27 -76
30 -153 8 -179 -48 -315 -188 -462 -75 -80 -209 -187 -232 -187 -4 0 -8 9 -8
20 0 36 -44 70 -89 70 -32 0 -44 -6 -65 -31 -31 -37 -33 -63 -6 -106 l19 -33
-21 -11 c-18 -10 -23 -9 -27 2 -2 8 -19 29 -37 46 -34 35 -85 44 -125 23 -29
-16 -51 -68 -47 -111 2 -26 -1 -40 -10 -44 -28 -11 -37 -4 -39 29 -3 66 -56
136 -102 136 -44 -1 -109 -37 -131 -72 -25 -41 -25 -54 -1 -100 14 -29 16 -38
5 -42 -7 -3 -90 -11 -183 -17 -132 -10 -202 -10 -315 -1 -160 13 -419 59 -410
73 3 5 16 9 28 9 13 0 48 12 78 27 52 27 56 28 119 16 35 -7 82 -12 104 -11
22 0 29 2 15 4 -154 23 -170 27 -159 41 8 9 23 11 45 7 40 -7 45 2 9 16 -14 5
-28 18 -31 27 -3 10 -12 32 -19 49 l-13 31 64 6 c37 4 91 18 124 33 32 14 63
25 68 23 5 -2 37 -37 71 -76 34 -40 66 -73 70 -73 5 0 14 13 21 29 6 17 33 42
61 60 60 37 117 121 150 223 20 61 24 92 23 188 0 110 -2 122 -49 265 -47 143
-50 155 -50 260 0 99 3 116 27 167 15 32 23 58 18 58 -4 0 -10 -3 -12 -7 -1
-5 -46 -43 -98 -85 -52 -42 -111 -97 -130 -122 -19 -25 -38 -45 -42 -46 -4 0
-10 10 -13 23 -4 12 -43 98 -87 191 -94 199 -113 249 -128 351 -11 72 -4 175
16 232 9 24 2 16 -83 -92 -154 -197 -232 -345 -285 -540 -25 -91 -29 -260 -9
-334 7 -23 11 -44 9 -46 -2 -2 -37 26 -78 62 -41 36 -142 120 -225 185 -82 66
-156 128 -163 138 -11 15 -11 23 2 49 22 42 20 82 -7 122 -36 54 -91 72 -151
49 -21 -8 -27 -6 -36 10 -8 15 -6 21 10 30 24 13 50 61 50 92 0 72 -87 126
-151 94 -30 -15 -34 -15 -48 0 -15 14 -14 17 3 27 67 40 82 86 47 143 -18 29
-18 35 -4 85 9 34 15 107 16 200 l2 146 28 -23 c30 -25 53 -30 76 -15 17 11 8
41 -31 95 -31 45 -30 69 3 87 11 5 19 14 19 19 0 14 -41 12 -71 -4 l-27 -14
-6 49 c-7 54 0 159 16 232 12 56 30 67 112 67 102 0 201 -73 255 -189 33 -71
36 -185 7 -241 -42 -80 -93 -113 -178 -114 -60 -1 -49 -14 12 -15 83 -1 167
69 195 161 20 69 19 107 -6 180 -53 158 -169 246 -310 236 -32 -2 -59 -2 -59
1 0 10 94 176 185 326 102 169 222 404 227 444 5 40 -18 34 -46 -13 -51 -88
-168 -170 -401 -281 -177 -84 -275 -145 -353 -218 -54 -51 -55 -51 -49 -22 3
17 12 76 18 132 l13 103 102 111 c56 61 116 137 133 169 39 73 40 91 2 25 -30
-51 -72 -95 -173 -179 l-56 -47 -6 58 c-18 189 -58 294 -140 376 -140 140
-353 186 -509 109 -201 -99 -288 -360 -185 -554 50 -93 128 -138 243 -138 71
0 158 38 184 80 l15 25 -30 -27 c-43 -40 -96 -58 -166 -58 -140 0 -231 84
-260 236 -28 153 78 353 220 417 71 31 183 35 270 8 127 -38 236 -130 281
-234 28 -64 51 -183 51 -259 l0 -64 -56 -54 c-121 -118 -229 -327 -271 -520
-25 -117 -25 -380 0 -500 27 -130 82 -295 136 -402 26 -54 46 -98 44 -98 -2 0
-26 13 -52 28 -42 23 -48 30 -39 46 5 9 7 28 4 42 -17 65 -88 85 -137 38 -32
-31 -57 -24 -34 9 32 46 3 117 -50 117 -25 0 -65 -26 -65 -43 -1 -34 -17 -39
-56 -18 -37 19 -38 20 -12 21 33 0 58 24 58 55 0 32 -25 55 -59 55 -46 0 -68
-42 -45 -85 10 -20 11 -26 1 -22 -265 117 -277 126 -246 184 12 22 11 26 -8
41 -19 16 -26 64 -87 617 -69 617 -102 876 -137 1050 -13 60 -24 171 -29 280
-7 161 -6 181 8 192 46 35 154 104 212 134 59 30 72 33 145 31 98 -2 212 -30
294 -71 34 -17 61 -33 61 -36 0 -2 -13 -2 -30 1 -16 4 -46 3 -67 -1 -32 -6
-35 -9 -21 -19 13 -9 -23 -16 -182 -35 -164 -19 -206 -21 -250 -12 -29 6 -55
9 -58 7 -2 -3 5 -18 17 -35 48 -67 202 -111 394 -111 140 0 298 -26 462 -77
13 -4 3 12 -29 48 l-49 54 137 3 137 3 -48 38 c-26 20 -89 82 -140 136 -106
112 -169 163 -268 212 -66 34 -69 36 -45 45 14 6 63 11 110 13 84 2 131 16
200 60 14 8 124 38 245 65 l220 49 15 -22 c36 -51 68 -82 115 -112 84 -53 150
-73 291 -84 160 -13 213 -30 275 -90 l48 -46 -6 30 c-26 141 -96 276 -184 361
-32 29 -54 54 -51 54 4 0 52 -11 107 -24 155 -38 188 -37 208 1 14 26 15 25
93 -128 92 -181 151 -251 224 -266 53 -10 64 -36 56 -133 -12 -141 -144 -321
-175 -238 -7 21 -11 17 -39 -39 -67 -132 -192 -230 -322 -253 -80 -14 -193 6
-250 44 -48 32 -96 105 -109 166 -21 96 28 229 101 278 45 29 50 39 9 18 -16
-9 -41 -30 -56 -48 -83 -98 -100 -235 -44 -346 47 -94 126 -147 257 -173 134
-26 260 4 397 95 247 165 373 438 321 696 -10 46 -22 92 -28 103 -50 93 164
-120 236 -235 76 -123 108 -222 114 -356 l5 -113 59 88 c130 194 182 330 183
485 0 54 3 98 7 98 4 0 31 -9 60 -21 74 -29 183 -53 418 -93 113 -19 214 -38
225 -42 18 -7 18 -5 -4 32 -13 21 -48 102 -78 179 -72 187 -113 256 -197 341
-65 65 -155 121 -241 149 -17 5 -16 9 15 32 84 63 169 163 211 248 40 80 43
91 47 189 2 57 1 126 -3 153 -7 44 -8 46 -15 21 -18 -64 -91 -148 -159 -182
-46 -24 -151 -43 -306 -56 -256 -20 -431 -55 -552 -110 -77 -35 -81 -36 -61
-12 29 33 88 139 119 213 60 143 169 218 332 228 87 6 89 7 43 14 -67 10 -169
-8 -245 -44 -35 -16 -66 -28 -68 -25 -2 2 1 23 6 47 5 24 13 57 16 72 l6 28
30 -25 c41 -35 64 -33 105 8 43 43 44 77 5 117 -33 32 -62 36 -103 15 l-28
-15 0 42 c-1 119 -59 272 -145 379 -57 71 -187 170 -280 214 -204 97 -436 98
-618 2 -87 -46 -212 -173 -259 -263 -55 -105 -78 -201 -78 -320 0 -166 39
-274 136 -375 186 -195 460 -182 674 32 139 140 160 337 44 409 -44 27 -107
30 -130 7 -16 -15 -15 -20 15 -64 17 -26 31 -53 31 -60 0 -25 -67 -110 -115
-146 -97 -74 -209 -97 -290 -59 -71 33 -110 89 -141 206 -39 145 12 334 123
454 l43 46 -25 -55 c-54 -120 -42 -214 37 -292 55 -56 100 -78 158 -78 88 0
170 81 170 167 0 50 -18 82 -60 111 -40 27 -89 25 -121 -4 -30 -27 -23 -51 21
-79 35 -22 39 -27 30 -50 -40 -104 -131 -121 -203 -36 -95 113 -27 326 125
391 109 47 277 9 420 -93 128 -91 273 -269 344 -419 13 -29 21 -42 18 -28 -19
74 -129 243 -220 340 -103 109 -215 183 -334 221 l-55 17 42 1 c71 2 194 -27
272 -64 58 -28 93 -54 156 -118 87 -89 133 -168 160 -272 15 -61 21 -210 8
-202 -5 3 -6 -14 -5 -37 2 -23 -6 -82 -17 -130 -20 -83 -24 -92 -78 -145 -31
-31 -109 -121 -173 -201 -124 -152 -164 -194 -244 -255 -109 -81 -321 -168
-441 -180 -154 -16 -394 -77 -534 -137 -57 -24 -174 -89 -169 -93 2 -2 35 5
73 16 60 17 237 49 272 49 6 0 -4 -15 -21 -32 -18 -18 -35 -38 -37 -44 -3 -9
-175 -53 -386 -99 -18 -4 -16 3 22 60 48 71 59 103 77 213 19 121 -15 289 -95
462 l-26 55 0 -41 c-2 -102 -49 -190 -172 -319 -88 -93 -128 -150 -172 -243
-30 -62 -32 -74 -32 -175 l0 -108 -46 -13 c-29 -9 -70 -12 -105 -9 -147 13
-334 -64 -395 -164 l-20 -31 23 5 c13 3 21 4 18 1 -7 -8 -172 -118 -177 -118
-1 0 -3 13 -3 28 0 76 -74 415 -119 545 l-20 57 20 -11 c16 -8 19 -17 15 -35
-4 -14 -2 -24 4 -24 5 0 10 9 10 19 0 11 15 28 35 40 101 59 196 306 245 636
11 77 27 166 35 199 40 155 152 289 310 367 52 26 82 46 76 52 -6 6 -68 -1
-163 -16 -158 -27 -284 -65 -364 -112 -67 -39 -155 -116 -199 -173 -21 -29
-40 -51 -41 -49 -1 1 2 29 7 62 16 114 -17 246 -92 371 -33 55 -383 434 -401
434 -4 0 -2 -12 6 -27 21 -41 59 -175 106 -378 70 -298 162 -494 260 -551 38
-23 42 -43 20 -119 -10 -36 -22 -90 -26 -122 l-7 -56 -33 94 c-68 192 -213
440 -307 527 -50 45 -93 55 -121 27 -20 -21 -26 -19 -26 8 0 47 -41 184 -79
262 -72 149 -160 226 -261 229 l-46 1 32 31 c17 18 34 44 38 58 13 54 -53 126
-116 126 -25 0 -28 3 -28 35 0 37 10 44 30 20 19 -23 92 -19 124 6 39 30 37
90 -4 131 -26 26 -36 30 -67 25 -35 -6 -35 -6 -18 13 22 24 51 26 63 3 9 -14
10 -14 16 5 7 22 7 22 29 2 39 -37 113 -15 118 35 5 58 -14 85 -64 94 l-37 6
44 55 c116 146 321 190 491 106 144 -71 244 -216 253 -365 5 -96 -10 -151 -56
-204 l-36 -42 37 34 c105 98 94 316 -26 484 -84 118 -174 174 -322 203 -73 15
-98 16 -160 6 -194 -30 -354 -147 -443 -325 l-29 -57 -6 112 c-9 179 -36 287
-132 523 -29 72 -54 139 -57 150 -2 15 -10 6 -30 -35z m-75 -692 c-5 -159 -3
-204 11 -256 22 -87 53 -156 82 -183 l24 -23 31 35 c16 19 47 60 68 91 l38 57
5 -107 c6 -127 37 -231 104 -349 24 -42 44 -77 44 -79 0 -1 -47 22 -105 51
-146 74 -232 83 -250 26 -6 -19 -10 -17 -58 22 -64 52 -160 96 -226 104 -48 5
-49 6 -38 30 14 32 5 39 -88 64 -57 15 -126 23 -235 28 -148 6 -153 7 -108 19
54 14 237 30 375 33 85 2 95 0 125 -23 18 -14 48 -33 65 -42 39 -20 118 -32
126 -19 3 5 -4 43 -15 84 -31 112 -31 321 1 497 14 72 26 132 27 132 1 0 0
-87 -3 -192z m1185 -705 c91 -95 144 -165 180 -238 44 -88 55 -139 56 -245 1
-84 -2 -102 -27 -155 -30 -63 -46 -63 -47 0 0 49 -56 261 -91 343 -37 91 -97
212 -104 212 -3 0 3 -17 14 -38 92 -180 170 -423 171 -530 l0 -33 -29 20 c-85
61 -163 242 -247 576 -35 138 -66 261 -70 275 -5 18 11 6 58 -45 37 -38 97
-102 136 -142z m863 -320 c-125 -74 -215 -188 -255 -323 -9 -30 -26 -118 -37
-195 -38 -258 -93 -448 -164 -565 -32 -53 -67 -90 -86 -90 -10 0 3 235 13 239
6 2 5 7 -2 11 -17 11 -2 80 19 81 13 1 12 2 -3 6 -15 4 -17 11 -12 46 4 23 10
59 13 80 6 45 11 72 13 72 1 0 4 17 6 38 3 21 11 57 18 80 8 23 17 56 20 72
12 51 73 167 121 228 38 48 118 115 221 185 10 7 -5 0 -34 -15 -63 -32 -166
-124 -217 -193 -43 -58 -99 -171 -110 -218 -5 -25 -11 -32 -22 -27 -13 4 -14
3 -3 -10 8 -9 10 -24 5 -42 -31 -109 -65 -399 -65 -550 0 -40 -4 -73 -8 -73
-28 0 -103 150 -138 275 -29 104 -11 310 40 450 54 148 196 305 342 376 85 41
200 75 306 88 35 5 67 9 73 10 5 0 -19 -16 -54 -36z m-3563 -48 c7 -7 -27 -36
-68 -57 -14 -7 -27 -15 -30 -18 -20 -22 -64 -49 -71 -44 -5 3 -8 1 -7 -4 2 -5
-22 -29 -52 -53 -62 -49 -232 -216 -274 -269 l-28 -35 7 48 c27 198 169 373
350 434 40 13 159 12 173 -2z m-101 -322 c-176 -362 -256 -552 -318 -763 l-22
-75 -8 40 c-38 193 -79 431 -84 483 -6 63 -6 64 36 119 52 69 180 205 187 198
3 -2 0 -10 -5 -17 -31 -38 -113 -338 -93 -338 5 0 14 33 20 73 14 85 49 194
86 267 23 45 28 50 42 38 15 -12 16 -11 3 5 -13 17 -12 21 15 43 108 91 255
196 263 189 2 -3 -52 -121 -122 -262z m1898 48 c95 -25 200 -73 287 -132 59
-40 254 -226 245 -235 -2 -2 -39 16 -83 41 -109 62 -260 120 -438 167 -127 33
-172 40 -281 45 -206 8 -293 -23 -415 -146 -36 -36 -113 -104 -169 -150 l-104
-83 6 56 c20 193 199 369 438 431 155 40 373 43 514 6z m1082 -83 c-3 -8 -6
-5 -6 6 -1 11 2 17 5 13 3 -3 4 -12 1 -19z m-1497 -64 c-30 -8 -88 -30 -127
-49 -40 -19 -73 -32 -73 -30 0 2 20 16 45 31 53 30 148 63 185 63 14 0 0 -7
-30 -15z m654 -108 c81 -31 231 -106 302 -151 46 -30 69 -56 143 -170 92 -140
223 -386 287 -540 45 -108 124 -342 149 -443 19 -72 16 -100 -11 -109 -5 -2
-22 34 -37 80 -72 208 -220 522 -342 722 -162 267 -373 511 -524 607 -55 34
-50 35 33 4z m3733 -85 c-37 -56 -151 -175 -155 -163 -9 28 158 225 175 208 3
-3 -6 -23 -20 -45z m683 -116 c0 -17 -197 -71 -398 -109 -114 -22 -141 -24
-184 -15 -53 12 -199 8 -232 -6 -14 -6 -18 -5 -14 6 5 17 48 23 308 44 245 21
435 51 518 84 1 1 2 -1 2 -4z m-7231 -97 c-40 -77 -124 -212 -167 -267 -13
-17 -25 -22 -37 -17 -15 5 -16 4 -5 -9 12 -14 7 -23 -31 -61 -188 -193 -322
-288 -518 -370 -31 -13 -51 -23 -44 -24 51 -1 331 157 422 239 19 17 39 28 45
24 6 -3 8 -2 3 2 -8 9 133 161 146 157 4 -1 6 1 5 5 -5 15 77 122 89 118 7 -2
10 2 7 10 -3 8 8 33 24 57 16 24 48 78 72 121 49 90 63 97 24 13 -15 -32 -39
-95 -54 -139 -18 -51 -33 -81 -41 -79 -9 2 -9 0 -2 -10 8 -9 7 -32 -3 -78 -7
-36 -17 -93 -20 -128 -6 -59 -10 -66 -58 -113 -111 -109 -263 -188 -443 -230
-67 -16 -133 -22 -278 -25 -104 -3 -187 -3 -185 -1 3 3 37 18 76 34 150 63
245 144 460 394 202 235 367 383 489 440 66 31 69 25 24 -63z m82 -145 c-9
-45 -19 -66 -48 -95 -20 -21 -38 -36 -40 -34 -5 5 46 162 70 214 l21 47 4 -37
c2 -21 -2 -63 -7 -95z m6315 -11 c94 -25 211 -76 281 -121 113 -73 233 -202
287 -308 23 -46 14 -41 -19 10 -47 71 -166 186 -240 232 -38 24 -102 54 -141
68 -78 28 -224 53 -250 43 -10 -4 -54 6 -98 21 l-81 27 52 8 c29 4 67 14 85
22 43 19 43 19 124 -2z m-2814 -170 c17 -34 29 -64 27 -67 -3 -2 -24 35 -47
83 -24 48 -35 78 -27 67 9 -11 30 -48 47 -83z m-3543 39 c-6 -18 -14 -30 -17
-27 -2 3 1 19 8 36 16 40 23 33 9 -9z m7135 -11 c43 -12 108 -34 145 -51 62
-28 211 -116 211 -124 0 -2 -39 14 -86 35 -101 47 -170 68 -271 84 -67 10 -76
14 -94 44 -20 31 -20 32 -2 32 11 0 54 -9 97 -20z m-3314 -734 c0 -19 3 -43 6
-53 4 -14 4 -15 -4 -3 -17 25 -26 90 -13 90 6 0 11 -15 11 -34z m-1315 -247
c126 -153 177 -281 177 -444 0 -81 -5 -116 -26 -180 -38 -118 -55 -140 -133
-175 -36 -17 -82 -42 -100 -56 -18 -14 -33 -23 -33 -21 0 2 17 39 39 83 45 93
85 213 102 304 12 73 14 220 2 262 -5 17 -8 -25 -8 -105 0 -72 -4 -148 -8
-167 -28 -125 -64 -225 -119 -330 -43 -82 -63 -108 -75 -96 -5 4 -8 60 -8 124
1 102 7 146 48 337 66 302 65 430 -3 590 l-21 50 56 -55 c31 -30 81 -85 110
-121z m1229 -69 c62 -307 106 -603 106 -708 0 -306 54 -759 119 -1009 10 -40
16 -73 13 -73 -3 0 -76 27 -161 60 -86 33 -250 93 -366 133 l-210 72 -12 60
c-36 178 -39 429 -8 650 24 168 25 172 51 184 13 5 33 30 46 53 20 37 23 59
24 153 1 101 3 116 34 185 55 127 144 270 248 399 l20 24 17 -59 c10 -32 30
-108 46 -169 15 -60 28 -101 28 -90 1 11 -17 89 -39 174 -38 145 -40 155 -24
172 10 11 18 18 20 16 2 -1 23 -104 48 -227z m-5362 -40 c195 -47 305 -152
353 -336 18 -69 19 -182 4 -256 -31 -147 -135 -248 -254 -248 -76 0 -131 19
-180 62 -25 22 -45 43 -45 47 0 5 23 -3 51 -17 96 -45 222 -40 300 14 74 50
112 169 90 275 -16 75 -82 204 -136 265 -96 111 -201 150 -375 141 -58 -3
-118 -9 -135 -13 -25 -5 -28 -4 -17 7 10 11 51 14 177 14 90 0 162 1 161 3
-12 11 -211 52 -260 54 l-61 1 50 7 c74 9 190 1 277 -20z m1696 -5 c-3 -3 -9
2 -12 12 -6 14 -5 15 5 6 7 -7 10 -15 7 -18z m-488 -231 c-6 -14 -10 -35 -10
-46 0 -11 -20 -44 -44 -72 -62 -74 -141 -194 -181 -278 -20 -41 -35 -63 -35
-51 0 29 40 139 107 292 30 69 55 133 56 143 1 10 10 21 22 23 11 2 29 6 40 8
49 11 55 8 45 -19z m-1999 -165 l-56 -79 -7 32 c-8 35 2 71 34 125 19 32 19
32 52 16 l33 -15 -56 -79z m8148 -101 c-12 -18 -83 -91 -158 -163 -74 -71
-181 -176 -237 -232 -80 -80 -105 -99 -115 -90 -11 10 -11 9 -1 -4 10 -14 6
-26 -23 -69 -20 -29 -45 -75 -57 -102 -11 -26 -25 -48 -31 -48 -5 0 -26 17
-45 38 -19 20 -30 27 -24 15 7 -12 26 -32 43 -46 27 -21 30 -27 24 -60 -4 -21
-12 -37 -19 -37 -6 0 -29 14 -51 32 -24 19 -32 23 -21 10 11 -13 34 -31 50
-42 29 -17 31 -23 28 -64 -3 -36 -7 -44 -20 -39 -16 5 -16 5 -1 -8 9 -8 19
-29 23 -48 l6 -34 -42 6 c-27 4 -37 2 -27 -4 7 -5 26 -9 42 -9 17 0 27 -5 27
-14 0 -8 3 -21 6 -30 4 -12 0 -16 -17 -17 -24 -2 -24 -2 -1 -6 27 -5 28 -14 1
-31 -26 -17 -22 -54 9 -67 12 -5 22 -15 22 -22 0 -7 -10 -14 -22 -14 -23 -2
-23 -2 -1 -6 19 -4 20 -6 8 -30 -16 -31 -11 -51 24 -81 20 -17 23 -24 13 -31
-11 -7 -11 -9 2 -14 12 -5 13 -12 5 -36 -12 -34 0 -64 38 -94 36 -29 27 -40
-15 -18 -54 27 -133 101 -175 163 -45 67 -69 184 -71 348 -1 106 11 297 20
311 1 3 6 30 9 60 13 108 26 154 54 189 59 73 200 167 405 269 111 55 230 123
266 150 36 27 66 50 68 50 2 1 -7 -14 -19 -31z m-63 -134 c-30 -55 -86 -154
-126 -219 -39 -65 -91 -157 -115 -204 -36 -72 -50 -90 -86 -110 -58 -32 -135
-106 -165 -157 -14 -23 -33 -44 -44 -47 -17 -4 -20 0 -20 28 0 64 20 135 38
135 13 0 14 2 3 9 -10 7 -11 13 -2 30 7 11 17 21 24 21 9 0 9 2 1 8 -28 17 80
149 310 377 127 127 232 230 234 229 1 0 -22 -46 -52 -100z m-2798 -74 c113
-53 208 -176 232 -300 25 -131 -37 -297 -133 -355 l-41 -24 -30 26 c-21 17
-37 23 -55 20 -14 -3 -33 -7 -41 -9 -8 -1 -56 6 -106 17 l-92 19 0 45 c0 25
-7 63 -16 83 -29 67 -22 103 30 158 l47 50 -44 0 c-130 -1 -211 -149 -148
-272 l21 -41 -54 7 c-29 3 -91 9 -137 13 -86 6 -121 24 -121 63 0 40 42 176
70 228 45 83 70 107 124 121 63 16 110 47 175 115 41 44 63 60 95 66 67 15
154 3 224 -30z m2107 -121 c-13 -92 -21 -120 -46 -156 -70 -102 -119 -255
-119 -373 0 -50 0 -50 -27 -44 -16 4 -30 9 -33 11 -3 3 -5 51 -4 106 1 110 26
199 66 239 19 19 21 19 39 2 18 -16 19 -16 19 12 0 57 41 198 77 267 20 38 39
65 41 59 2 -7 -4 -62 -13 -123z m-2460 80 c-42 -43 -103 -82 -145 -94 -25 -7
-24 -6 5 22 38 36 86 70 133 94 51 25 51 24 7 -22z m-4939 -119 c32 0 33 -1
22 -21 -11 -17 -77 -55 -83 -47 -4 8 -25 87 -25 97 0 8 11 4 26 -8 15 -12 41
-21 60 -21z m4484 -181 c12 -35 37 -92 56 -127 19 -34 34 -67 34 -73 0 -6 -20
-9 -47 -7 -46 3 -47 4 -61 48 -7 25 -17 101 -21 170 l-8 125 -1 -95 c-1 -52 5
-126 12 -165 15 -76 12 -85 -34 -85 -47 0 -54 12 -47 87 8 83 51 259 69 281
11 13 14 7 20 -40 4 -31 17 -84 28 -119z m1876 -174 c14 -82 48 -239 75 -347
27 -108 49 -201 49 -207 0 -18 -42 2 -50 23 -37 98 -92 400 -115 635 -18 185
-18 248 1 131 7 -47 25 -152 40 -235z m990 73 c-30 -203 -30 -470 0 -565 5
-15 4 -15 -7 2 -7 11 -16 52 -20 91 -4 39 -18 95 -31 125 -41 96 -25 270 38
408 13 30 27 52 30 48 3 -3 -1 -52 -10 -109z m-7126 -106 l30 -65 -42 6 c-35
5 -50 14 -85 54 -60 68 -62 79 -18 115 20 17 41 42 47 57 10 24 11 22 24 -38
7 -35 27 -93 44 -129z m7567 51 c-11 -40 -14 -175 -9 -513 3 -222 -7 -301 -41
-306 -18 -2 -37 23 -37 51 0 9 4 14 9 10 5 -3 13 0 17 6 4 8 3 9 -4 5 -8 -5
-12 3 -12 25 0 18 -7 40 -16 50 -14 16 -14 20 2 46 l17 28 -24 -28 c-22 -25
-26 -27 -44 -14 -14 11 -19 25 -18 58 2 35 9 50 45 88 l43 46 -45 -42 c-43
-40 -46 -41 -66 -25 -11 10 -24 29 -27 43 -5 20 -1 28 21 41 15 9 43 33 62 54
29 32 27 31 -19 -9 -29 -26 -59 -47 -66 -47 -13 0 -25 43 -25 91 0 22 7 32 30
44 17 9 30 18 30 21 0 2 -9 0 -19 -6 -35 -18 -39 -12 -29 33 23 103 91 199
184 261 52 33 54 32 41 -11z m-7672 -91 c-28 -6 -45 7 -45 35 l0 27 31 -30
c24 -23 27 -30 14 -32z m4210 -74 c3 -46 11 -110 15 -142 5 -33 8 -61 6 -63
-2 -2 -39 5 -82 16 -274 70 -554 102 -884 102 -369 1 -625 -31 -1040 -127
-407 -94 -459 -106 -595 -129 -206 -36 -414 -55 -597 -55 -167 0 -241 7 -233
20 3 4 -6 11 -20 14 -20 5 -55 49 -55 69 0 3 28 -1 63 -8 121 -26 264 -38 422
-38 240 0 412 25 825 123 582 138 1227 248 1645 280 77 5 156 12 175 14 19 1
105 4 191 4 l157 2 7 -82z m161 37 c15 -52 57 -152 100 -237 18 -38 30 -68 27
-68 -4 0 2 -7 13 -16 19 -15 19 -16 -1 -9 -11 4 -65 20 -120 37 -55 16 -105
35 -111 41 -15 15 -34 148 -34 233 l0 65 57 -3 57 -3 12 -40z m88 18 c3 -16 8
-46 11 -68 10 -64 47 -218 57 -238 5 -10 7 -21 5 -24 -8 -7 -113 211 -142 296
-21 60 -20 61 24 61 35 0 40 -3 45 -27z m73 -23 c17 -22 95 -113 174 -201 131
-146 259 -309 259 -329 0 -5 -44 16 -97 45 -53 30 -138 71 -187 92 -50 20 -97
43 -103 49 -29 28 -108 384 -86 384 5 0 23 -18 40 -40z m208 20 c168 -25 181
-28 166 -43 -19 -19 -12 -57 14 -82 31 -32 56 -31 94 1 26 21 34 24 46 14 8
-7 15 -18 15 -25 0 -22 41 -49 75 -49 38 0 63 17 76 52 13 34 34 21 35 -22 1
-45 30 -86 68 -99 36 -12 92 13 108 48 12 27 24 30 61 16 27 -10 47 -70 47
-139 0 -24 9 -52 23 -73 12 -19 30 -54 39 -77 16 -42 16 -45 -2 -80 -25 -47
-25 -98 0 -140 22 -36 74 -72 105 -72 15 0 31 -20 59 -73 22 -39 59 -105 83
-145 40 -65 44 -78 41 -126 l-3 -55 -143 109 c-79 60 -201 147 -270 194 -134
89 -410 256 -423 256 -5 0 -38 45 -74 100 -68 104 -122 171 -231 293 -58 64
-62 72 -49 87 39 43 -4 96 -51 65 -24 -15 -26 -15 -52 16 -55 65 -56 69 -25
69 15 0 91 -9 168 -20z m326 -75 c-1 -15 -24 -12 -29 3 -3 9 2 13 12 10 10 -1
17 -7 17 -13z m2379 -5 c-12 -23 -30 -27 -30 -7 0 17 10 27 27 27 11 0 11 -5
3 -20z m-16 -57 c-10 -40 -14 -41 -14 -5 0 18 5 32 10 32 6 0 8 -11 4 -27z
m-1832 -83 c6 0 3 -9 -7 -20 -20 -23 -35 -18 -35 12 0 14 5 18 16 14 9 -3 20
-6 26 -6z m-1726 -60 c179 -30 203 -39 280 -99 11 -9 2 1 -20 22 -28 26 -35
37 -21 33 11 -3 49 -12 84 -20 34 -8 64 -16 65 -18 1 -2 9 -27 18 -57 l17 -53
-22 6 c-114 33 -224 48 -354 49 -88 1 -143 6 -143 12 0 19 15 33 43 40 15 4
27 11 27 17 0 5 -9 6 -21 3 -15 -5 -29 1 -53 24 -17 17 -49 39 -71 50 -54 27
-36 26 171 -9z m529 -117 c28 -8 75 -21 105 -30 59 -16 83 -30 74 -44 -3 -5
-1 -9 4 -9 12 0 34 -59 26 -71 -3 -5 -1 -9 5 -9 12 0 35 -39 28 -47 -3 -2 -29
8 -59 24 -30 15 -97 44 -151 63 -96 35 -97 35 -112 79 -21 62 -20 74 8 65 12
-4 45 -13 72 -21z m2859 -138 c14 -27 43 -91 64 -141 47 -110 113 -223 198
-338 35 -47 62 -86 59 -86 -2 0 -42 25 -89 54 l-84 55 -30 78 c-16 43 -44 123
-62 178 -51 156 -74 191 -118 180 -22 -5 -24 -4 -18 17 3 13 9 40 12 62 l7 39
18 -24 c10 -13 30 -46 43 -74z m-2440 1 c173 -66 184 -73 220 -145 42 -83 89
-201 83 -208 -8 -7 -212 124 -210 136 2 5 -3 8 -11 5 -8 -3 -35 8 -60 23 -38
24 -44 31 -34 43 11 13 11 13 -1 3 -22 -19 -26 -17 -67 32 -32 40 -35 47 -23
63 12 15 12 16 -2 5 -13 -11 -22 -4 -57 47 -23 32 -42 61 -42 64 0 5 94 -26
204 -68z m-284 -43 c124 -56 126 -58 165 -125 28 -47 33 -63 23 -69 -9 -6 -8
-9 7 -9 19 0 92 -95 87 -112 -1 -5 2 -8 7 -8 15 0 91 -102 84 -113 -3 -5 -2
-7 4 -4 11 7 149 -130 140 -139 -12 -13 -92 10 -165 47 -182 91 -379 295 -501
519 -22 41 -41 78 -41 82 0 10 88 -22 190 -69z m1836 60 c9 -10 42 -94 73
-188 32 -93 65 -187 75 -207 9 -21 14 -38 10 -38 -12 0 -194 416 -194 445 0
11 21 4 36 -12z m1127 3 c6 -15 -1 -26 -15 -26 -5 0 -6 5 -3 10 3 6 1 10 -4
10 -6 0 -11 5 -11 10 0 15 27 12 33 -4z m-4808 -4 c-6 -5 -55 -45 -110 -90
-55 -44 -138 -113 -185 -152 -47 -40 -111 -90 -143 -112 -66 -45 -205 -118
-225 -118 -14 0 282 241 373 303 65 44 285 177 294 177 3 0 1 -4 -4 -8z m3933
-106 c203 -94 286 -137 291 -149 11 -31 53 -58 84 -55 38 4 190 -74 216 -110
150 -214 318 -383 446 -450 25 -13 22 -6 -24 44 -99 109 -215 286 -178 271 28
-11 241 -152 255 -170 8 -9 23 -35 35 -59 16 -30 35 -50 66 -66 24 -13 81 -58
127 -101 120 -114 315 -252 390 -277 10 -3 -22 19 -72 49 -115 68 -163 104
-291 220 -93 83 -108 106 -71 107 23 0 465 -365 460 -381 -1 -5 2 -9 7 -9 14
0 104 -79 118 -104 19 -33 16 -36 -41 -36 -58 0 -183 -21 -229 -39 -24 -9 -35
-5 -110 43 -45 29 -194 112 -330 185 -401 214 -519 291 -749 489 -16 13 -18
13 -23 -1 -4 -9 12 -42 38 -80 25 -36 86 -146 135 -244 50 -98 115 -225 146
-282 31 -58 55 -106 53 -107 -1 -2 -50 37 -107 85 -258 216 -548 559 -641 756
-74 157 -154 387 -184 523 -8 39 -20 42 183 -52z m-1934 24 c31 -47 33 -58 7
-33 -25 24 -50 73 -37 73 2 0 15 -18 30 -40z m2790 -126 c49 -22 50 -25 48
-61 -3 -41 27 -93 53 -93 8 0 23 -14 35 -30 19 -26 20 -34 10 -65 -23 -70 19
-131 97 -144 48 -8 62 -31 37 -63 l-19 -25 -53 35 c-101 67 -285 341 -363 539
-6 18 4 13 49 -24 31 -25 79 -56 106 -69z m-2275 10 c197 -110 484 -304 662
-449 23 -18 26 -31 36 -150 7 -71 10 -131 8 -133 -2 -2 -50 32 -107 76 -114
87 -441 319 -560 397 -74 48 -76 51 -93 110 -9 33 -34 97 -55 143 -21 45 -36
82 -33 82 3 0 67 -34 142 -76z m-399 -48 c55 -72 66 -93 57 -104 -9 -12 -16
-9 -38 17 -14 17 -32 44 -40 59 -8 15 -20 33 -27 41 -7 7 -22 30 -32 52 -35
67 5 36 80 -65z m2768 66 c4 -26 -19 -30 -39 -6 -10 13 -10 17 2 25 20 13 34
6 37 -19z m-2719 -47 c37 -23 40 -27 29 -45 -7 -11 -15 -20 -18 -20 -3 0 -23
23 -44 52 -41 54 -34 56 33 13z m96 -58 c19 -13 32 -27 27 -32 -4 -5 -2 -5 5
-1 7 3 43 -13 80 -37 79 -51 93 -79 93 -188 0 -79 -12 -104 -35 -72 -8 12 -21
28 -28 35 -44 46 -66 80 -61 96 4 12 3 13 -3 4 -7 -9 -17 -3 -39 25 -44 55
-46 60 -34 85 10 21 10 21 -3 6 -19 -24 -20 -24 -51 21 -23 33 -26 43 -16 60
14 27 23 26 65 -2z m-22 -118 c33 -43 37 -53 25 -67 -11 -15 -11 -16 3 -4 15
11 21 7 49 -28 22 -27 29 -45 23 -51 -17 -17 -181 170 -168 191 12 19 30 9 68
-41z m462 -172 c88 -61 244 -173 346 -249 l186 -138 7 -50 c4 -28 17 -86 30
-130 13 -44 21 -80 18 -80 -8 0 -248 127 -315 166 -116 69 -342 222 -408 278
-37 30 -74 68 -82 85 -13 27 -13 35 0 73 11 31 13 64 9 117 l-6 73 28 -17 c15
-10 99 -67 187 -128z m-305 -27 c38 -49 29 -51 -24 -6 -23 20 -36 38 -32 45
10 15 18 9 56 -39z m2130 -298 c114 -86 286 -188 545 -327 212 -113 375 -207
375 -215 0 -8 -240 -103 -269 -106 -31 -3 -62 21 -54 44 4 13 3 14 -5 3 -7
-10 -27 2 -88 57 -110 98 -297 282 -449 442 -79 83 -100 102 -54 50 40 -47
170 -183 289 -302 163 -164 214 -220 206 -230 -9 -9 -8 -10 4 -1 12 9 21 6 43
-12 15 -13 27 -26 27 -29 0 -3 -17 -17 -37 -31 -21 -14 -34 -25 -29 -25 5 0
24 12 43 26 33 25 35 25 54 8 15 -13 16 -19 7 -26 -9 -5 -5 -8 11 -8 13 0 41
-14 62 -31 34 -27 38 -33 27 -48 -12 -14 -11 -15 5 -2 15 12 22 10 58 -13 46
-31 43 -42 -20 -70 -37 -17 -39 -17 -82 4 -24 13 -46 25 -49 29 -3 3 -36 22
-74 41 -38 19 -122 69 -187 111 -137 90 -126 75 -321 453 -65 127 -122 234
-128 240 -10 10 -14 36 -6 36 2 0 46 -31 96 -68z m3180 32 c132 -31 238 -135
259 -256 12 -72 6 -101 -30 -147 l-25 -32 -12 62 c-29 155 -134 278 -278 325
-27 9 -63 22 -81 30 -17 8 -39 15 -50 15 -10 1 -5 5 12 9 50 13 137 10 205 -6z
m-3431 -208 c98 -105 224 -222 344 -318 80 -63 109 -95 161 -173 35 -52 62
-95 60 -95 -1 0 -49 37 -106 82 -185 146 -414 388 -554 583 -67 94 -75 110
-22 50 24 -27 76 -86 117 -129z m-651 -81 c2 2 -1 18 -6 35 -10 28 -6 26 60
-32 39 -35 106 -94 148 -133 117 -107 198 -177 280 -239 41 -31 82 -69 91 -84
10 -18 25 -27 42 -28 25 -1 57 -19 57 -33 0 -3 -4 -12 -9 -20 -10 -16 -158 83
-531 357 -200 146 -217 161 -242 212 -15 30 -28 59 -28 63 0 5 30 -16 67 -47
37 -31 69 -54 71 -51z m-3368 -100 c-7 -9 -15 -13 -18 -10 -3 2 1 11 8 20 7 9
15 13 18 10 3 -2 -1 -11 -8 -20z m6929 -82 c2 -2 -1 -3 -7 -3 -15 0 -72 50
-72 63 0 6 17 -5 37 -24 21 -18 40 -35 42 -36z m-6940 -18 c-12 -20 -29 -40
-39 -45 -10 -5 -24 -25 -30 -44 -9 -28 -8 -40 4 -65 24 -45 20 -74 -12 -92
-26 -15 -32 -35 -23 -81 3 -18 36 -38 62 -38 26 0 34 -9 30 -32 0 -5 3 -8 9
-8 6 0 10 -5 10 -12 0 -9 -3 -9 -12 0 -17 17 -63 15 -77 -2 -16 -19 -10 -66
10 -79 28 -18 69 0 76 33 5 29 7 28 50 -45 24 -42 50 -84 58 -93 8 -9 28 -35
45 -57 63 -81 254 -266 320 -310 9 -5 -4 8 -30 30 -195 171 -345 350 -412 493
-36 77 -38 84 -24 104 23 33 20 56 -14 90 -38 37 -38 53 0 54 41 2 78 29 87
65 8 28 10 26 33 -48 32 -100 261 -561 338 -678 32 -49 80 -114 106 -142 l48
-53 -74 31 c-277 117 -429 209 -553 334 -112 111 -167 220 -184 362 -9 78 3
131 51 228 45 88 89 146 123 161 27 11 31 10 37 -7 5 -12 0 -32 -13 -54z
m3821 -64 c31 -14 108 -69 172 -121 103 -84 114 -96 95 -103 -32 -12 -68 11
-61 38 7 30 -18 49 -56 42 -26 -6 -42 3 -127 72 -54 43 -118 97 -143 120 l-45
41 55 -31 c30 -18 80 -44 110 -58z m-3768 62 c8 -10 20 -33 26 -51 l11 -33
-30 30 c-19 19 -35 28 -46 24 -9 -4 -14 -2 -11 3 3 5 8 17 11 27 4 9 10 17 15
17 5 0 16 -8 24 -17z m4602 -233 c119 -74 181 -109 315 -176 83 -41 110 -59
100 -66 -10 -7 -8 -8 7 -3 23 6 74 -12 74 -27 0 -5 4 -7 9 -4 5 3 43 -8 85
-25 67 -28 75 -34 64 -48 -12 -14 -11 -14 4 -2 15 11 28 9 93 -14 75 -28 75
-28 58 -49 -18 -21 -18 -21 4 -3 21 19 24 18 105 -8 46 -15 89 -29 96 -31 48
-14 -65 -47 -162 -48 -60 -1 -89 6 -188 42 -240 89 -549 256 -625 338 -47 50
-150 188 -136 183 5 -2 48 -29 97 -59z m419 -27 c18 -6 23 -38 7 -48 -10 -6
-119 64 -120 77 0 4 21 0 48 -8 26 -9 55 -18 65 -21z m57 -42 c0 -11 3 -12 8
-4 5 9 35 -3 105 -43 83 -47 97 -59 98 -82 1 -22 2 -23 6 -6 l4 22 47 -26 c26
-14 50 -30 53 -35 3 -5 9 -8 13 -7 3 1 31 -8 60 -19 30 -11 85 -26 123 -34 62
-12 70 -16 88 -50 11 -20 16 -39 12 -43 -11 -11 -196 61 -375 147 -159 77
-162 79 -157 106 5 26 5 27 -5 5 -10 -23 -10 -23 -41 -5 -18 10 -34 26 -37 36
-3 11 -8 14 -11 8 -12 -20 -32 5 -26 32 7 28 35 27 35 -2z m-911 -59 c22 -18
23 -19 4 -24 -24 -7 -48 10 -55 39 -7 25 4 22 51 -15z m929 -20 l23 -15 -27
-28 c-33 -35 -42 -35 -96 -8 l-41 21 49 28 c27 15 54 25 59 22 6 -3 20 -12 33
-20z m-963 -12 c4 -6 1 -17 -5 -25 -9 -11 -17 -12 -32 -4 -15 8 -17 13 -7 25
14 16 35 18 44 4z m1042 -44 c-2 -5 -15 -19 -30 -30 -23 -17 -30 -18 -54 -7
l-28 13 35 28 c29 23 38 26 57 17 13 -6 22 -15 20 -21z m-827 -58 c0 -4 -16 2
-35 13 -19 12 -35 25 -35 30 0 5 16 -1 35 -13 19 -13 35 -26 35 -30z m903 26
c65 -33 61 -28 48 -56 -12 -23 -12 -23 4 -2 l16 22 107 -47 c121 -54 145 -64
152 -65 3 -1 28 -10 57 -21 41 -15 50 -22 41 -32 -15 -18 -22 -17 -132 18 -89
28 -96 32 -90 52 6 21 5 21 -8 4 -14 -18 -21 -16 -159 38 -79 31 -146 59 -149
62 -5 5 46 53 56 53 3 0 28 -12 57 -26z m-380 -66 c29 -17 115 -62 192 -100
147 -72 148 -79 5 -21 -96 40 -218 109 -270 155 -29 25 -30 27 -7 14 15 -10
51 -31 80 -48z m-559 39 c16 -12 16 -14 -4 -32 -18 -17 -22 -17 -36 -4 -16 17
-9 49 10 49 7 0 20 -6 30 -13z m1794 -76 c8 -4 12 -19 10 -32 -3 -23 -4 -23
-21 9 -17 32 -14 39 11 23z m-1580 -34 l23 -13 -24 -22 c-26 -24 -62 -21 -53
5 3 8 6 21 6 29 0 17 17 17 48 1z m246 -161 c-8 -40 -8 -40 -34 -26 -16 8 -20
18 -16 33 3 12 6 28 6 34 0 10 6 10 25 1 22 -10 25 -16 19 -42z m2186 -55 c0
-6 -14 -18 -30 -26 -17 -9 -28 -20 -25 -25 6 -10 -47 -50 -67 -50 -7 1 4 10
25 21 22 11 37 22 34 25 -2 2 -45 -16 -94 -41 -97 -48 -111 -52 -133 -32 -12
10 -12 9 -1 -5 11 -15 8 -19 -24 -33 -48 -19 -64 -19 -89 3 -21 17 -21 17 -2
-5 15 -18 16 -23 5 -27 -70 -22 -92 -27 -105 -22 -8 3 -13 2 -10 -3 7 -10 -6
-14 -139 -41 -93 -19 -391 -60 -430 -60 -44 1 276 149 460 213 127 44 350 103
410 109 87 9 215 8 215 -1z m-1779 -80 c68 -23 171 -52 228 -65 59 -13 97 -25
88 -29 -38 -15 -261 24 -429 74 l-68 20 17 25 c9 14 21 23 28 20 7 -2 68 -23
136 -45z m1803 -8 c-11 -91 -55 -166 -153 -263 -231 -228 -541 -329 -896 -291
-128 14 -245 36 -480 92 -165 40 -219 59 -162 59 70 0 353 77 432 118 18 9
102 22 213 33 165 16 434 65 501 90 21 9 29 7 43 -11 24 -30 23 -36 -12 -50
-28 -12 -33 -10 -58 11 l-27 24 23 -26 c20 -23 21 -27 7 -33 -10 -4 -25 4 -41
22 -23 25 -24 25 -10 2 9 -13 16 -27 16 -31 0 -3 -34 -16 -76 -29 l-76 -22
-36 33 c-34 31 -35 31 -9 3 15 -16 27 -33 27 -36 0 -12 -45 -16 -59 -5 -11 9
-13 9 -8 0 5 -8 -6 -16 -34 -23 -52 -14 -170 -37 -229 -44 -25 -3 -79 -10
-120 -15 -41 -6 -99 -11 -129 -11 -30 0 -51 -3 -48 -7 17 -17 296 14 482 54
185 39 173 38 178 12 4 -22 4 -22 6 3 1 22 7 29 34 36 30 8 32 7 36 -22 l4
-31 6 34 c5 32 11 36 61 53 30 11 106 43 167 73 102 48 114 52 123 37 10 -15
10 -14 5 3 -4 17 6 27 51 53 47 27 59 30 73 20 14 -11 14 -11 3 3 -10 14 -6
20 28 43 22 14 44 26 49 26 5 0 11 3 13 8 4 11 71 62 81 62 5 0 5 -26 1 -57z
m-154 -20 c0 -14 -90 -65 -105 -60 -8 4 -12 1 -9 -6 2 -7 -15 -22 -38 -35 -37
-20 -44 -21 -57 -7 -18 18 -25 13 84 59 50 21 94 42 100 47 11 11 25 12 25 2z
m-222 -105 c20 -20 14 -28 -40 -53 l-53 -25 -17 23 c-20 26 -19 28 40 49 59
21 56 20 70 6z"/>
<path d="M7140 8001 c0 -6 4 -13 10 -16 6 -3 7 1 4 9 -7 18 -14 21 -14 7z"/>
<path d="M7495 7100 c10 -11 20 -20 23 -20 3 0 -3 9 -13 20 -10 11 -20 20 -23
20 -3 0 3 -9 13 -20z"/>
<path d="M4085 6909 c-10 -94 -1 -98 11 -4 5 41 6 75 3 75 -4 0 -10 -32 -14
-71z"/>
<path d="M4073 6745 c0 -27 2 -38 4 -22 2 15 2 37 0 50 -2 12 -4 0 -4 -28z"/>
<path d="M6217 5555 c9 -19 18 -33 21 -31 4 5 -26 66 -33 66 -3 0 3 -16 12
-35z"/>
<path d="M6240 5505 c0 -5 5 -17 10 -25 5 -8 10 -10 10 -5 0 6 -5 17 -10 25
-5 8 -10 11 -10 5z"/>
<path d="M6281 5384 c0 -11 3 -14 6 -6 3 7 2 16 -1 19 -3 4 -6 -2 -5 -13z"/>
<path d="M7502 5305 c0 -16 2 -22 5 -12 2 9 2 23 0 30 -3 6 -5 -1 -5 -18z"/>
<path d="M7512 5245 c0 -16 2 -22 5 -12 2 9 2 23 0 30 -3 6 -5 -1 -5 -18z"/>
<path d="M7522 5165 c0 -16 2 -22 5 -12 2 9 2 23 0 30 -3 6 -5 -1 -5 -18z"/>
<path d="M7186 4654 c-36 -35 0 -87 44 -64 26 14 26 56 1 70 -25 13 -27 13
-45 -6z"/>
<path d="M7111 4514 c-27 -34 -26 -50 4 -79 29 -30 45 -31 79 -4 31 25 34 61
6 89 -28 28 -64 25 -89 -6z"/>
<path d="M7094 4370 c-28 -11 -54 -48 -54 -78 0 -13 14 -37 30 -54 26 -25 36
-29 63 -24 41 8 67 39 67 82 0 32 -28 74 -49 74 -5 0 -15 2 -23 4 -7 3 -23 1
-34 -4z"/>
<path d="M7057 4149 c-23 -13 -47 -62 -47 -95 0 -16 13 -39 35 -61 32 -32 40
-35 73 -30 69 11 110 83 81 140 -26 51 -95 73 -142 46z"/>
<path d="M8850 4377 c0 -2 15 -16 33 -33 l32 -29 -29 33 c-28 30 -36 37 -36
29z"/>
<path d="M8774 4081 c7 -11 46 -35 46 -28 0 3 -12 12 -26 22 -15 9 -23 12 -20
6z"/>
<path d="M8710 4016 c0 -2 8 -10 18 -17 15 -13 16 -12 3 4 -13 16 -21 21 -21
13z"/>
<path d="M8757 3979 c7 -7 15 -10 18 -7 3 3 -2 9 -12 12 -14 6 -15 5 -6 -5z"/>
<path d="M8808 3893 c7 -3 16 -2 19 1 4 3 -2 6 -13 5 -11 0 -14 -3 -6 -6z"/>
<path d="M6003 4014 c-4 -11 1 -22 12 -31 16 -11 21 -11 33 1 8 8 12 22 9 30
-8 21 -46 21 -54 0z"/>
<path d="M6230 4090 c-11 -11 -20 -29 -20 -40 0 -25 34 -60 59 -60 19 0 61 43
61 62 0 15 -48 58 -65 58 -8 0 -24 -9 -35 -20z"/>
<path d="M6008 3643 c7 -3 16 -2 19 1 4 3 -2 6 -13 5 -11 0 -14 -3 -6 -6z"/>
<path d="M6206 3523 c-6 -14 -5 -15 5 -6 7 7 10 15 7 18 -3 3 -9 -2 -12 -12z"/>
<path d="M6286 3483 c-6 -14 -5 -15 5 -6 7 7 10 15 7 18 -3 3 -9 -2 -12 -12z"/>
<path d="M6083 3483 c9 -2 23 -2 30 0 6 3 -1 5 -18 5 -16 0 -22 -2 -12 -5z"/>
<path d="M6138 3403 c7 -3 16 -2 19 1 4 3 -2 6 -13 5 -11 0 -14 -3 -6 -6z"/>
<path d="M9099 2173 c-13 -16 -12 -17 4 -4 16 13 21 21 13 21 -2 0 -10 -8 -17
-17z"/>
<path d="M9331 2094 c0 -11 3 -14 6 -6 3 7 2 16 -1 19 -3 4 -6 -2 -5 -13z"/>
<path d="M9304 2004 c-18 -14 -18 -15 4 -4 12 6 22 13 22 15 0 8 -5 6 -26 -11z"/>
<path d="M9350 1930 c-9 -6 -10 -10 -3 -10 6 0 15 5 18 10 8 12 4 12 -15 0z"/>
<path d="M4365 1696 c-22 -16 -15 -50 11 -54 25 -4 47 19 38 41 -8 22 -29 28
-49 13z"/>
<path d="M9971 1704 c0 -11 3 -14 6 -6 3 7 2 16 -1 19 -3 4 -6 -2 -5 -13z"/>
<path d="M11013 1070 c0 -25 2 -35 4 -22 2 12 2 32 0 45 -2 12 -4 2 -4 -23z"/>
<path d="M10953 1065 c0 -22 2 -30 4 -17 2 12 2 30 0 40 -3 9 -5 -1 -4 -23z"/>
<path d="M10861 1014 c0 -11 3 -14 6 -6 3 7 2 16 -1 19 -3 4 -6 -2 -5 -13z"/>
<path d="M9890 930 l-115 -6 123 -2 c76 -1 122 2 122 8 0 6 -3 9 -7 8 -5 -1
-60 -5 -123 -8z"/>
<path d="M2820 9465 c0 -5 5 -17 10 -25 5 -8 10 -10 10 -5 0 6 -5 17 -10 25
-5 8 -10 11 -10 5z"/>
<path d="M2730 9455 c0 -5 5 -17 10 -25 5 -8 10 -10 10 -5 0 6 -5 17 -10 25
-5 8 -10 11 -10 5z"/>
<path d="M5110 9398 c0 -24 -6 -83 -14 -133 -24 -153 -27 -208 -16 -285 26
-187 147 -323 299 -337 57 -5 131 10 131 27 0 23 -153 324 -208 408 -8 12 -12
22 -8 22 3 0 57 -66 120 -147 63 -82 132 -166 155 -187 l40 -39 21 24 c48 57
65 101 65 179 0 92 -30 164 -100 239 -64 68 -121 103 -292 177 -80 35 -153 70
-162 79 -26 23 -31 19 -31 -27z"/>
<path d="M2840 9415 c0 -5 5 -17 10 -25 5 -8 10 -10 10 -5 0 6 -5 17 -10 25
-5 8 -10 11 -10 5z"/>
<path d="M3130 9407 c0 -13 42 -118 46 -115 2 2 -6 29 -17 59 -20 52 -29 70
-29 56z"/>
<path d="M2930 9385 c0 -5 5 -17 10 -25 5 -8 10 -10 10 -5 0 6 -5 17 -10 25
-5 8 -10 11 -10 5z"/>
<path d="M3121 9370 c0 -8 4 -22 9 -30 12 -18 12 -2 0 25 -6 13 -9 15 -9 5z"/>
<path d="M2870 9345 c0 -5 5 -17 10 -25 5 -8 10 -10 10 -5 0 6 -5 17 -10 25
-5 8 -10 11 -10 5z"/>
<path d="M4205 9307 c-92 -35 -146 -65 -217 -117 -70 -53 -209 -194 -228 -231
-7 -15 0 -10 17 11 152 189 386 341 527 340 74 -1 168 -57 201 -121 25 -47 48
-169 41 -217 -21 -154 -165 -296 -301 -296 -72 0 -101 21 -120 88 -25 87 -2
133 68 138 20 2 37 6 37 11 0 4 13 1 30 -8 16 -8 40 -15 54 -15 21 0 27 7 38
41 10 34 9 46 -3 67 -62 109 -230 86 -293 -40 -31 -63 -32 -81 -5 -152 46
-124 196 -191 307 -139 58 27 130 106 165 181 29 61 32 76 32 162 0 123 -8
158 -49 212 -71 93 -191 127 -301 85z"/>
<path d="M3140 9317 c0 -4 16 -39 35 -78 20 -38 33 -74 30 -79 -8 -13 54 -132
65 -125 6 3 10 11 10 16 0 6 -4 7 -10 4 -6 -3 -7 1 -4 10 4 10 2 15 -6 13 -7
-2 -15 4 -17 12 -4 13 -3 13 6 0 10 -13 11 -13 11 0 1 8 9 -1 20 -20 11 -19
19 -30 19 -25 0 18 -118 241 -119 225 0 -8 -9 1 -20 20 -11 19 -19 32 -20 27z
m119 -212 c1 -5 -4 -3 -9 5 -9 13 -10 13 -10 0 -1 -8 -8 -3 -16 13 -8 15 -12
32 -9 37 3 5 -3 27 -15 49 -11 22 -20 44 -20 48 1 11 79 -139 79 -152z"/>
<path d="M3220 9155 c0 -5 5 -17 10 -25 5 -8 10 -10 10 -5 0 6 -5 17 -10 25
-5 8 -10 11 -10 5z"/>
<path d="M2970 9285 c0 -5 5 -17 10 -25 5 -8 10 -10 10 -5 0 6 -5 17 -10 25
-5 8 -10 11 -10 5z"/>
<path d="M2520 9256 c0 -2 8 -10 18 -17 15 -13 16 -12 3 4 -13 16 -21 21 -21
13z"/>
<path d="M2980 9217 c0 -19 52 -107 60 -102 6 3 10 8 10 11 0 3 -5 2 -12 -2
-8 -5 -9 -2 -5 10 5 11 3 15 -5 10 -8 -5 -9 -2 -5 10 4 11 3 15 -4 10 -7 -4
-9 0 -5 12 3 11 1 26 -4 34 -9 13 -10 13 -10 0 0 -13 -1 -13 -10 0 -5 8 -10
11 -10 7z"/>
<path d="M2665 9190 c10 -11 20 -20 23 -20 3 0 -3 9 -13 20 -10 11 -20 20 -23
20 -3 0 3 -9 13 -20z"/>
<path d="M2900 9190 c6 -11 13 -20 16 -20 2 0 0 9 -6 20 -6 11 -13 20 -16 20
-2 0 0 -9 6 -20z"/>
<path d="M2550 9118 c41 -45 50 -53 50 -45 0 2 -21 23 -47 47 l-48 45 45 -47z"/>
<path d="M2660 9108 c41 -45 50 -53 50 -45 0 2 -21 23 -47 47 l-48 45 45 -47z"/>
<path d="M2745 9080 c27 -27 51 -50 54 -50 3 0 -17 23 -44 50 -27 28 -51 50
-54 50 -3 0 17 -22 44 -50z"/>
<path d="M2675 9000 c10 -11 20 -20 23 -20 3 0 -3 9 -13 20 -10 11 -20 20 -23
20 -3 0 3 -9 13 -20z"/>
<path d="M2855 8950 c10 -11 20 -20 23 -20 3 0 -3 9 -13 20 -10 11 -20 20 -23
20 -3 0 3 -9 13 -20z"/>
<path d="M2905 8880 c10 -11 20 -20 23 -20 3 0 -3 9 -13 20 -10 11 -20 20 -23
20 -3 0 3 -9 13 -20z"/>
<path d="M6839 8884 c-17 -21 0 -48 34 -52 21 -3 28 2 33 22 3 14 3 30 -1 35
-10 16 -51 13 -66 -5z"/>
<path d="M6715 8858 c-26 -15 -35 -28 -35 -54 0 -43 72 -73 98 -41 24 30 23
56 -2 82 -28 28 -33 29 -61 13z"/>
<path d="M2900 8828 c18 -19 160 -120 160 -114 0 6 -107 88 -145 111 -22 13
-26 14 -15 3z"/>
<path d="M2310 8571 c19 -5 29 -9 23 -10 -20 -2 -15 -21 5 -22 11 -1 9 -4 -8
-9 -44 -14 -1 -11 71 6 78 18 91 34 27 34 -24 0 -68 2 -98 5 -44 3 -48 2 -20
-4z"/>
<path d="M120 8422 c-49 -50 -59 -133 -24 -203 7 -14 30 -41 50 -59 35 -30 36
-33 18 -43 -35 -19 -93 -83 -99 -110 -17 -64 30 -157 109 -219 l44 -34 -48
-42 c-96 -83 -86 -184 26 -253 l32 -20 -29 -31 c-37 -42 -45 -84 -24 -134 22
-54 56 -86 124 -119 58 -27 59 -28 63 -76 7 -68 44 -120 109 -153 85 -42 171
-29 198 31 19 41 12 48 -17 20 -41 -39 -82 -36 -131 9 -45 40 -66 90 -57 137
8 44 -15 74 -67 87 -86 23 -157 93 -142 141 4 10 22 31 41 45 47 37 48 78 0
94 -18 6 -52 27 -75 46 -64 55 -54 113 29 168 58 38 54 64 -15 110 -63 41
-112 103 -121 152 -9 49 20 93 83 124 29 14 52 32 52 41 1 8 -16 23 -39 33
-73 32 -120 116 -106 189 11 58 36 80 97 88 l54 6 -53 2 c-46 1 -57 -3 -82
-27z"/>
<path d="M10484 8315 c-4 -9 -2 -21 4 -27 15 -15 44 -1 40 19 -4 23 -36 29
-44 8z"/>
<path d="M10526 8244 c-29 -29 -15 -64 25 -64 23 0 30 6 35 27 5 19 2 30 -11
40 -24 17 -30 16 -49 -3z"/>
<path d="M2039 8200 c-102 -10 -241 -31 -235 -37 2 -2 41 1 87 6 45 6 84 9 86
7 2 -2 -50 -18 -117 -36 -66 -18 -119 -35 -117 -37 3 -2 49 8 103 21 96 24
204 42 174 29 -8 -3 -39 -15 -68 -25 -71 -26 -61 -33 11 -9 31 11 100 32 154
46 54 15 105 31 113 36 18 10 -66 10 -191 -1z"/>
<path d="M10562 8144 c-12 -8 -22 -26 -22 -39 0 -23 32 -55 57 -55 39 0 56 65
25 93 -23 21 -32 21 -60 1z"/>
<path d="M10576 7998 c-9 -12 -16 -29 -16 -38 0 -9 7 -26 16 -38 23 -34 83
-27 104 11 13 24 13 30 0 55 -21 37 -81 44 -104 10z"/>
<path d="M1893 7837 c-95 -28 -171 -53 -169 -55 2 -1 31 4 64 12 81 21 86 20
27 -8 -62 -30 -56 -32 20 -6 65 22 83 20 36 -5 -17 -8 -31 -18 -31 -21 0 -8
212 104 230 122 20 20 16 19 -177 -39z"/>
<path d="M10600 7857 c-59 -30 -55 -108 6 -133 38 -16 73 -1 92 40 17 35 2 78
-34 95 -31 14 -33 14 -64 -2z"/>
<path d="M1730 7750 c-8 -5 -10 -10 -5 -10 6 0 17 5 25 10 8 5 11 10 5 10 -5
0 -17 -5 -25 -10z"/>
<path d="M2003 7588 c-40 -12 -70 -25 -66 -30 3 -6 -4 -8 -18 -4 -17 4 -16 2
6 -8 28 -13 34 -12 97 20 38 19 68 36 68 39 0 7 -6 6 -87 -17z"/>
<path d="M2435 7526 c-120 -44 -247 -97 -242 -102 2 -2 32 7 68 21 35 13 55
18 44 10 -55 -39 -55 -43 0 -20 l60 25 -40 -35 c-26 -23 2 -9 80 41 172 110
173 112 30 60z"/>
<path d="M5738 6888 c-27 -21 -40 -66 -27 -90 11 -21 12 -21 26 5 19 36 37 34
97 -12 70 -55 106 -68 123 -45 16 23 16 29 -2 64 -26 50 -80 83 -143 88 -38 2
-63 -1 -74 -10z"/>
<path d="M6309 6824 c-15 -19 -2 -47 26 -52 25 -5 38 13 31 42 -7 30 -36 35
-57 10z"/>
<path d="M1884 5256 c-9 -23 -1 -48 19 -60 26 -16 62 27 47 55 -13 22 -58 26
-66 5z"/>
<path d="M1742 5214 c-45 -31 -19 -104 37 -104 55 0 80 61 41 100 -24 24 -48
25 -78 4z"/>
<path d="M8299 5150 c-41 -12 -68 -29 -79 -50 -10 -19 -8 -19 34 -14 40 6 48
4 74 -22 22 -22 32 -45 40 -93 19 -106 58 -140 100 -86 84 107 -40 303 -169
265z"/>
<path d="M1411 5004 c-13 -9 -29 -32 -37 -50 -37 -88 73 -164 149 -104 90 71
-18 219 -112 154z"/>
<path d="M4090 4823 c-65 -24 -81 -103 -31 -154 37 -37 79 -38 120 -3 26 22
31 33 31 70 0 71 -55 111 -120 87z"/>
<path d="M4014 4606 c-49 -22 -59 -74 -23 -120 42 -53 139 -18 139 52 0 27
-31 72 -50 72 -4 0 -14 2 -22 5 -7 2 -27 -2 -44 -9z"/>
<path d="M3890 4440 c-41 -41 -14 -110 43 -110 31 0 67 35 67 66 0 25 -43 64
-71 64 -11 0 -28 -9 -39 -20z"/>
<path d="M3780 4340 c-23 -23 -24 -33 -10 -61 12 -22 59 -26 78 -7 18 18 15
53 -6 71 -24 22 -38 21 -62 -3z"/>
<path d="M3674 4266 c-10 -26 4 -48 28 -44 17 2 23 10 23 28 0 18 -6 26 -23
28 -13 2 -25 -3 -28 -12z"/>
<path d="M7942 3718 c-30 -30 3 -77 40 -57 30 16 16 69 -17 69 -6 0 -16 -5
-23 -12z"/>
<path d="M8032 3678 c-7 -7 -12 -21 -12 -33 0 -12 5 -26 12 -33 7 -7 21 -12
33 -12 12 0 26 5 33 12 7 7 12 21 12 33 0 12 -5 26 -12 33 -7 7 -21 12 -33 12
-12 0 -26 -5 -33 -12z"/>
<path d="M2353 3045 c-79 -57 55 -256 264 -392 190 -124 369 -176 603 -176
160 0 259 18 508 95 216 66 637 146 852 163 187 14 596 22 780 14 348 -14 591
-70 716 -165 l37 -29 -18 35 c-9 18 -40 55 -67 82 -27 26 -47 48 -44 48 3 0
75 -20 160 -45 158 -46 365 -122 514 -191 77 -36 82 -40 82 -69 0 -58 72 -89
103 -45 13 19 17 19 47 7 l32 -14 -26 -7 c-38 -9 -61 -59 -45 -97 34 -82 147
-53 137 35 -2 20 -2 36 0 36 11 0 366 -189 765 -407 824 -450 1144 -591 1592
-706 238 -61 310 -71 520 -72 169 0 199 3 268 23 43 12 95 32 115 43 21 11 28
17 17 13 -175 -63 -281 -80 -448 -70 -211 13 -415 57 -717 157 -345 114 -628
250 -1285 614 -375 208 -615 338 -850 459 -60 31 -121 63 -135 71 -14 8 -37
17 -52 20 -21 4 -27 11 -30 37 -4 42 -47 61 -76 35 -17 -16 -26 -14 -149 37
-156 65 -368 134 -518 171 -73 18 -147 45 -220 80 -192 94 -436 165 -567 165
-82 0 -112 -15 -116 -58 l-3 -32 -27 18 c-146 103 -358 132 -488 66 -64 -32
-93 -64 -96 -108 -2 -23 -10 -32 -37 -43 -106 -45 -345 -83 -395 -64 -23 9
-27 15 -22 36 4 14 5 25 3 25 -2 0 -46 -20 -98 -44 -124 -57 -241 -96 -309
-103 -70 -7 -281 12 -385 33 -120 25 -239 71 -308 121 -34 24 -49 33 -34 19
15 -14 24 -26 20 -26 -4 0 -102 47 -218 106 -179 90 -219 106 -270 111 -46 3
-65 1 -82 -12z"/>
<path d="M6604 2615 c-8 -21 2 -45 19 -45 20 0 40 27 33 45 -7 19 -45 20 -52
0z"/>
<path d="M7025 2228 c-32 -17 -45 -39 -45 -79 0 -29 7 -43 31 -63 40 -34 74
-33 110 3 46 46 38 110 -18 139 -27 15 -52 15 -78 0z"/>
<path d="M7920 2170 c8 -5 20 -10 25 -10 6 0 3 5 -5 10 -8 5 -19 10 -25 10 -5
0 -3 -5 5 -10z"/>
<path d="M11816 2055 c-9 -9 -16 -20 -16 -25 0 -15 32 -41 48 -38 24 5 39 35
26 56 -15 23 -38 26 -58 7z"/>
<path d="M11716 1954 c-34 -34 -9 -94 39 -94 30 0 55 25 55 55 0 30 -25 55
-55 55 -13 0 -31 -7 -39 -16z"/>
<path d="M5527 1932 c-22 -24 -21 -45 1 -65 23 -21 46 -22 66 -1 30 30 9 84
-33 84 -10 0 -25 -8 -34 -18z"/>
<path d="M6904 1837 c-53 -46 -22 -130 47 -130 33 0 79 39 79 68 0 27 -23 63
-47 74 -35 16 -49 14 -79 -12z"/>
<path d="M11586 1838 c-37 -53 -5 -118 57 -118 42 0 70 29 70 70 0 43 -28 70
-74 70 -28 0 -42 -6 -53 -22z"/>
<path d="M5565 1805 c-14 -13 -25 -31 -25 -40 0 -23 45 -65 70 -65 27 0 60 35
60 64 0 25 -41 66 -67 66 -8 0 -25 -11 -38 -25z"/>
<path d="M6750 1750 c-28 -28 -25 -64 6 -89 15 -12 32 -21 39 -21 26 0 65 41
65 69 0 56 -70 81 -110 41z"/>
<path d="M6624 1655 c-15 -23 -15 -27 0 -50 27 -40 96 -25 96 21 0 55 -66 75
-96 29z"/>
<path d="M5615 1660 c-70 -28 -62 -126 11 -144 35 -9 76 14 87 47 12 36 -6 81
-39 96 -29 13 -32 13 -59 1z"/>
<path d="M6540 1575 c-16 -19 -4 -52 22 -61 30 -9 62 29 48 57 -13 22 -52 25
-70 4z"/>
<path d="M10518 1523 c7 -3 16 -2 19 1 4 3 -2 6 -13 5 -11 0 -14 -3 -6 -6z"/>
<path d="M10383 1513 c15 -2 39 -2 55 0 15 2 2 4 -28 4 -30 0 -43 -2 -27 -4z"/>
<path d="M6482 1478 c2 -15 10 -23 23 -23 30 0 27 39 -3 43 -20 3 -23 0 -20
-20z"/>
<path d="M9608 1413 c7 -3 16 -2 19 1 4 3 -2 6 -13 5 -11 0 -14 -3 -6 -6z"/>
</g>
</svg>
