<?xml version="1.0" standalone="no"?>
<!DOCTYPE svg PUBLIC "-//W3C//DTD SVG 20010904//EN"
 "http://www.w3.org/TR/2001/REC-SVG-20010904/DTD/svg10.dtd">
<svg version="1.0" xmlns="http://www.w3.org/2000/svg"
 width="1280.000000pt" height="1134.000000pt" viewBox="0 0 1280.000000 1134.000000"
 preserveAspectRatio="xMidYMid meet">
<metadata>
Created by potrace 1.15, written by Peter Selinger 2001-2017
</metadata>
<g transform="translate(0.000000,1134.000000) scale(0.100000,-0.100000)"
fill="#000000" stroke="none">
<path d="M8907 11324 c-174 -63 -401 -347 -679 -849 -157 -283 -507 -992 -831
-1680 -300 -640 -810 -1756 -804 -1762 2 -2 59 117 127 264 896 1943 1453
3002 1737 3304 97 103 214 152 228 96 14 -53 -80 -225 -183 -339 -55 -60 -132
-156 -197 -242 -42 -55 -12 -37 99 60 302 264 523 541 534 669 4 47 2 54 -23
73 -38 30 -88 37 -179 24 -44 -7 -82 -10 -85 -7 -9 10 109 172 159 219 58 54
103 76 157 76 64 -1 93 -38 93 -118 0 -27 -7 -71 -15 -97 -8 -27 -13 -51 -11
-52 6 -6 64 89 85 140 27 63 28 136 1 170 -27 33 -98 67 -141 66 -19 0 -51 -7
-72 -15z"/>
<path d="M3755 11162 c-104 -50 -125 -135 -63 -255 25 -51 70 -119 74 -114 2
2 -3 25 -11 52 -8 26 -15 75 -15 107 0 52 4 63 29 89 54 54 142 36 231 -47 46
-43 150 -184 150 -203 0 -5 -19 -5 -42 0 -60 11 -126 11 -171 -2 -148 -41 -84
-210 182 -483 142 -145 401 -365 401 -340 0 9 -131 165 -212 251 -125 133
-221 309 -188 347 32 40 123 3 217 -86 279 -268 840 -1291 1748 -3191 65 -136
120 -246 122 -244 7 7 -521 1120 -881 1857 -660 1351 -963 1873 -1236 2134
-137 129 -244 171 -335 128z"/>
<path d="M11635 11102 c-391 -138 -884 -409 -1330 -730 -598 -431 -1796 -1491
-3056 -2705 -198 -189 -258 -253 -300 -319 -118 -184 -188 -418 -205 -683 -15
-238 52 -613 167 -929 l32 -88 31 94 c50 149 121 264 181 292 119 57 247 -36
309 -224 40 -121 49 -220 41 -455 -5 -175 -4 -223 10 -289 41 -195 138 -337
304 -445 70 -45 187 -96 245 -107 l38 -7 -50 64 c-145 186 -242 387 -242 499
1 138 157 223 287 156 109 -55 209 -158 498 -511 220 -269 308 -369 480 -541
409 -411 697 -557 913 -464 105 45 158 139 150 262 -7 102 -43 174 -132 264
-59 59 -89 79 -181 123 -403 193 -580 294 -810 465 -379 282 -597 545 -612
741 -7 80 0 106 38 150 55 62 154 79 296 49 244 -50 486 -213 660 -444 134
-177 164 -195 333 -207 104 -7 181 11 284 64 181 95 406 403 394 541 -5 58
-25 61 -115 19 -99 -46 -169 -61 -258 -54 -119 9 -264 75 -280 128 -9 28 8 39
65 39 236 2 613 353 885 824 74 130 211 403 286 573 113 256 337 838 326 849
-2 2 -81 -26 -176 -62 -95 -36 -175 -64 -177 -61 -2 2 4 15 14 28 119 151 447
688 697 1139 308 556 442 882 476 1160 12 103 6 396 -11 512 -21 143 -79 237
-181 293 -44 23 -69 30 -134 32 -73 4 -90 0 -190 -35z m291 -213 c48 -23 85
-66 111 -130 15 -37 18 -72 17 -209 -1 -155 -3 -173 -37 -300 -101 -386 -288
-755 -635 -1250 -363 -519 -844 -1067 -1164 -1324 -218 -176 -467 -316 -705
-396 -132 -45 -161 -66 -75 -55 379 49 638 127 894 271 124 70 559 284 576
284 17 0 12 -14 -45 -149 -200 -468 -477 -891 -769 -1171 -307 -294 -623 -482
-837 -497 l-78 -6 23 -24 c32 -35 74 -54 226 -104 72 -24 132 -47 132 -50 0
-19 -83 -34 -185 -33 -133 1 -200 17 -345 85 -137 63 -206 86 -309 104 -243
43 -453 -14 -518 -140 -42 -80 -55 -216 -28 -282 37 -89 -32 -28 -81 72 -70
141 -69 270 2 413 69 141 239 290 435 381 134 63 272 106 557 176 147 36 296
75 332 87 185 60 280 151 280 268 0 54 -14 79 -55 96 -102 42 -291 -19 -419
-134 -82 -75 -123 -90 -386 -137 -382 -69 -551 -140 -688 -290 -104 -113 -176
-291 -204 -496 -6 -49 -15 -89 -19 -89 -14 0 -20 159 -9 267 30 318 154 567
355 708 33 23 166 96 295 162 693 354 1258 755 1749 1243 546 542 748 902 618
1099 -91 137 -357 112 -518 -48 -68 -69 -137 -200 -274 -526 -178 -424 -285
-612 -434 -768 -176 -184 -364 -273 -605 -284 -170 -8 -324 24 -383 79 -46 43
-27 52 165 72 247 27 396 74 542 171 113 75 237 224 287 345 30 74 30 114 -3
147 -23 23 -31 25 -74 20 -102 -12 -181 -68 -263 -185 -198 -282 -370 -386
-591 -355 -57 8 -92 20 -128 42 -27 17 -51 31 -53 31 -2 0 -14 -10 -26 -22
-38 -40 -59 -98 -59 -168 0 -54 5 -74 30 -116 69 -121 234 -198 426 -199 l101
0 -34 -42 c-68 -83 -210 -196 -348 -277 -177 -103 -349 -153 -785 -226 -429
-73 -549 -116 -673 -242 -122 -124 -225 -327 -286 -565 -14 -57 -29 -103 -32
-103 -24 0 -25 220 -4 404 49 417 195 788 400 1014 70 77 656 564 819 680 l46
33 0 -49 c0 -69 -41 -224 -84 -316 -64 -139 -120 -212 -297 -387 -180 -177
-219 -232 -200 -282 25 -66 170 -31 309 76 240 183 458 607 537 1042 21 110
25 119 154 290 161 214 345 405 516 538 98 76 356 249 362 243 3 -2 -46 -65
-108 -138 -357 -422 -508 -697 -509 -926 0 -206 111 -212 264 -13 131 170 309
532 446 906 134 363 176 444 299 565 170 167 802 603 1194 824 423 238 726
332 863 265z m-2601 -6472 c196 -82 440 -209 506 -262 67 -53 127 -137 136
-188 12 -78 -55 -123 -169 -114 -145 12 -307 133 -504 377 -71 87 -194 260
-194 272 0 9 34 -3 225 -85z"/>
<path d="M12254 10920 c2 -19 21 -123 41 -230 30 -160 37 -220 38 -330 1 -127
-1 -140 -31 -227 -38 -112 -82 -200 -177 -358 -90 -149 -128 -224 -165 -324
-58 -158 -94 -405 -80 -546 l6 -60 7 40 c31 166 74 260 225 494 194 297 305
504 338 626 9 33 18 116 21 185 9 216 -28 366 -153 615 -52 106 -73 140 -70
115z"/>
<path d="M12596 10722 c57 -347 74 -621 50 -802 -46 -350 -170 -712 -285 -830
-118 -123 -124 -11 -16 279 53 141 36 135 -70 -24 -61 -93 -154 -274 -187
-366 -33 -94 -31 -342 6 -649 52 -427 46 -625 -25 -845 -64 -197 -217 -465
-384 -671 -41 -49 -144 -163 -229 -253 -238 -249 -342 -425 -397 -671 -37
-169 -26 -166 65 17 99 197 145 276 189 321 72 75 173 108 203 67 64 -88 -104
-481 -293 -685 -67 -73 -144 -129 -268 -195 -103 -54 -194 -116 -272 -183
l-53 -46 28 -30 c46 -50 70 -90 83 -138 25 -92 -38 -182 -149 -214 -101 -30
-264 1 -506 98 -54 21 -103 37 -108 36 -16 -6 131 -96 247 -152 287 -140 448
-151 620 -41 78 50 161 140 200 219 30 59 35 78 35 142 0 40 4 84 10 99 16 43
97 121 193 187 51 34 111 80 135 102 112 102 236 360 288 596 11 51 16 111 14
185 -7 273 0 319 70 471 48 104 118 207 213 313 92 103 150 201 193 329 70
205 75 272 63 777 -3 121 -1 152 19 228 35 131 83 272 199 587 262 710 332
985 320 1260 -8 189 -43 325 -119 471 -22 41 -55 93 -72 114 l-33 39 23 -142z"/>
<path d="M884 10770 c-113 -45 -201 -167 -224 -310 -20 -124 -24 -455 -7 -565
49 -315 201 -642 635 -1365 152 -254 407 -648 518 -799 41 -56 44 -62 23 -56
-218 70 -333 105 -337 100 -7 -6 45 -150 141 -390 105 -265 180 -433 286 -645
191 -383 337 -603 528 -796 203 -207 381 -314 522 -314 100 0 117 -26 54 -80
-82 -73 -223 -116 -343 -107 -62 4 -81 10 -193 53 -65 25 -82 14 -81 -54 3
-101 96 -256 232 -383 86 -81 163 -127 257 -154 75 -22 210 -16 305 14 77 24
101 47 222 211 213 290 513 482 778 497 75 4 90 2 130 -19 61 -31 84 -74 82
-153 -2 -168 -163 -409 -435 -653 -271 -243 -576 -454 -871 -603 -77 -39 -169
-91 -202 -115 -265 -187 -309 -504 -84 -603 128 -56 270 -22 467 110 254 170
533 462 943 989 364 468 462 560 598 560 62 0 137 -45 158 -95 48 -115 -28
-319 -214 -573 -29 -41 -51 -76 -49 -79 10 -9 159 56 233 102 92 57 206 170
253 248 18 31 47 96 65 144 l31 88 1 300 c0 239 4 314 17 371 35 152 86 247
167 306 56 41 129 49 177 19 61 -38 147 -182 179 -301 10 -33 21 -57 25 -53
13 14 89 251 118 372 101 411 102 727 5 1028 -37 115 -117 269 -177 340 -57
68 -295 284 -847 767 -1107 970 -2045 1720 -2550 2041 -401 254 -793 447
-1154 568 -127 42 -165 51 -241 54 -73 2 -100 -1 -141 -17z m220 -215 c348
-61 892 -335 1577 -796 113 -76 227 -157 253 -180 101 -89 166 -207 279 -504
93 -244 138 -347 239 -547 112 -222 206 -365 291 -445 77 -71 116 -85 156 -56
79 59 59 273 -44 475 -75 148 -225 349 -429 578 -58 65 -106 121 -106 124 0
15 296 -166 400 -244 104 -78 250 -213 352 -328 94 -104 237 -284 258 -323 5
-9 18 -61 29 -116 112 -545 397 -991 694 -1085 98 -31 157 -13 157 46 0 51
-60 127 -174 220 -161 133 -245 233 -321 384 -42 84 -82 220 -91 309 l-7 67
29 -18 c52 -34 195 -137 359 -260 445 -333 520 -400 623 -559 130 -201 228
-501 267 -817 22 -181 19 -410 -5 -410 -4 0 -10 18 -14 41 -13 82 -80 265
-137 378 -163 320 -284 381 -884 441 -110 11 -256 30 -325 41 -293 49 -535
166 -725 350 l-80 78 65 1 c192 1 391 97 466 225 50 86 41 200 -21 272 l-32
38 -39 -27 c-78 -54 -110 -62 -239 -63 -120 0 -121 0 -198 38 -90 45 -201 148
-289 268 -93 126 -171 179 -266 181 -136 3 -144 -100 -20 -279 75 -108 173
-195 282 -249 133 -65 251 -92 469 -104 202 -12 227 -20 185 -60 -30 -29 -107
-65 -188 -87 -101 -28 -330 -25 -433 5 -154 44 -272 118 -395 246 -141 147
-239 316 -407 701 -137 315 -209 450 -274 515 -141 140 -369 171 -488 67 -141
-124 -80 -364 171 -677 86 -107 439 -457 586 -582 480 -405 1041 -748 1665
-1017 66 -29 145 -66 175 -83 219 -122 354 -364 391 -704 11 -106 5 -274 -11
-274 -4 0 -11 32 -15 72 -19 193 -95 383 -200 495 -78 85 -160 134 -297 178
-122 40 -211 56 -455 85 -197 23 -252 40 -326 103 -154 132 -394 171 -461 75
-39 -55 -6 -173 63 -228 79 -62 170 -88 516 -150 361 -65 532 -114 693 -201
284 -152 417 -382 357 -613 -21 -80 -61 -158 -101 -197 -36 -34 -44 -27 -20
19 24 47 27 98 12 172 -37 175 -139 245 -356 243 -166 -1 -344 -52 -502 -144
-39 -23 -105 -54 -148 -70 -134 -48 -325 -62 -375 -25 -15 11 1 19 117 64 140
54 220 98 236 129 9 17 4 18 -72 19 -140 1 -310 67 -517 202 -345 226 -608
507 -851 912 -122 202 -303 579 -286 595 11 11 455 -178 648 -275 195 -98 589
-185 811 -178 l94 3 -109 28 c-284 73 -563 214 -801 406 -554 445 -1273 1331
-1565 1927 -168 341 -256 689 -230 901 17 139 84 231 187 259 63 17 75 17 177
-1z m2607 -6242 c-5 -10 -35 -56 -66 -102 -186 -277 -358 -461 -508 -542 -58
-32 -68 -34 -155 -34 -86 0 -95 2 -113 24 -42 51 -14 135 75 229 60 64 148
125 306 212 118 65 449 229 463 230 4 0 3 -8 -2 -17z"/>
<path d="M489 10464 c-124 -263 -157 -378 -166 -575 -12 -269 39 -398 336
-839 164 -244 216 -345 241 -469 15 -75 18 -82 25 -57 12 43 -3 246 -25 356
-39 193 -87 307 -218 518 -241 388 -258 487 -166 981 19 102 32 187 29 189 -2
3 -28 -44 -56 -104z"/>
<path d="M172 10398 c-138 -212 -196 -493 -162 -778 26 -210 101 -455 317
-1029 218 -582 248 -704 222 -894 -21 -152 -17 -349 10 -485 44 -229 110 -365
247 -514 107 -114 167 -200 219 -309 64 -136 71 -189 65 -459 -2 -102 1 -129
28 -231 53 -201 148 -394 245 -496 27 -29 94 -80 149 -115 115 -72 182 -128
204 -169 8 -17 16 -63 17 -111 3 -72 8 -91 37 -146 77 -144 235 -253 389 -268
77 -7 187 23 326 89 152 74 366 209 352 223 -2 2 -53 -19 -113 -47 -175 -82
-303 -122 -410 -127 -114 -5 -150 6 -203 63 -37 40 -41 50 -41 97 0 60 24 115
75 175 l35 41 -39 35 c-64 58 -149 111 -310 192 -140 71 -161 85 -235 159
-161 162 -299 423 -313 592 -5 54 -3 64 17 84 25 25 63 24 124 -5 82 -39 124
-97 271 -375 l77 -145 -6 60 c-7 83 -49 222 -96 319 -72 150 -135 231 -331
426 -102 102 -219 228 -261 280 -207 259 -332 504 -383 755 -21 103 -21 340 0
535 43 399 47 449 42 595 -5 167 -13 197 -87 345 -66 131 -199 330 -221 330
-5 0 10 -51 33 -112 62 -171 84 -262 70 -293 -17 -37 -40 -31 -93 25 -56 58
-133 207 -179 349 -132 406 -145 659 -64 1220 13 95 23 175 21 178 -2 2 -23
-25 -45 -59z"/>
<path d="M11856 8508 c-81 -130 -238 -351 -364 -510 -123 -156 -145 -191 -212
-331 -69 -144 -116 -270 -165 -446 -35 -124 -95 -401 -95 -431 1 -8 58 147
129 345 70 198 138 380 150 405 105 202 278 370 384 370 111 0 101 -217 -20
-415 -20 -33 -101 -150 -179 -260 -266 -375 -411 -620 -509 -865 -95 -237
-162 -501 -170 -675 l-5 -100 24 100 c26 106 76 270 121 395 68 188 187 379
495 795 336 453 404 554 451 670 109 274 126 603 53 1028 -4 20 -9 37 -13 37
-3 0 -37 -50 -75 -112z"/>
<path d="M861 8218 c-39 -187 -54 -525 -30 -694 17 -123 54 -256 98 -350 48
-102 117 -201 360 -512 364 -468 443 -581 526 -754 61 -128 146 -374 172 -503
10 -47 21 -85 26 -85 20 0 -22 268 -69 436 -106 388 -248 651 -635 1171 -174
235 -207 288 -239 383 -31 91 -26 213 9 241 13 10 38 19 55 19 111 0 306 -191
390 -383 21 -47 95 -245 216 -580 23 -65 44 -116 46 -114 6 6 -43 238 -76 363
-46 172 -106 336 -175 479 -67 139 -100 188 -247 366 -133 162 -206 260 -318
426 l-98 144 -11 -53z"/>
<path d="M6384 6838 c-41 -10 -99 -76 -115 -126 -26 -87 17 -126 136 -125 145
1 196 54 146 151 -40 77 -106 117 -167 100z"/>
<path d="M6361 6523 c-42 -21 -86 -89 -100 -154 -24 -112 -7 -224 68 -447 l49
-143 -34 -67 c-118 -232 -125 -761 -19 -1587 51 -395 91 -641 105 -650 12 -7
26 69 59 318 81 607 105 896 106 1247 0 226 -4 309 -18 399 -20 123 -56 248
-86 298 l-20 31 41 124 c80 247 99 412 58 521 -40 107 -124 152 -209 110z"/>
<path d="M6924 5400 c-49 -15 -90 -70 -104 -137 -13 -62 -8 -202 10 -263 18
-63 32 -312 25 -465 -13 -307 -50 -575 -124 -896 -53 -234 -64 -332 -63 -609
0 -258 10 -413 47 -745 101 -897 364 -2064 495 -2195 29 -29 99 -26 161 5 112
56 218 145 558 472 136 129 321 300 413 379 262 227 388 371 469 539 57 118
73 191 72 320 -3 226 -49 329 -350 778 -117 176 -238 361 -268 412 -169 287
-153 429 48 426 63 0 124 -21 189 -62 71 -46 201 -189 308 -338 197 -275 246
-338 329 -422 134 -134 231 -171 356 -134 132 38 230 108 276 197 34 64 38
198 10 309 -32 125 -61 177 -149 260 -292 279 -980 610 -1727 830 -198 59
-266 92 -353 174 -172 160 -261 392 -282 734 -10 166 -32 253 -83 327 -56 82
-178 130 -263 104z m1978 -1891 c254 -131 513 -339 581 -467 70 -131 28 -292
-76 -292 -76 0 -207 89 -343 233 -141 149 -213 260 -253 391 -19 62 -29 186
-15 186 3 0 51 -23 106 -51z m-927 -521 c383 -417 704 -924 746 -1175 14 -83
3 -132 -42 -186 -65 -79 -121 -83 -197 -13 -95 88 -174 232 -342 626 -274 642
-378 930 -335 930 2 0 78 -82 170 -182z m-282 -143 c52 -111 148 -306 214
-435 265 -520 382 -849 371 -1040 -4 -67 -9 -84 -48 -150 -108 -188 -144 -223
-201 -200 -86 36 -220 326 -303 660 -64 258 -129 670 -156 985 -19 229 -9 419
20 389 5 -5 51 -99 103 -209z m-388 -400 c323 -942 353 -1037 410 -1310 27
-128 42 -313 31 -386 -7 -46 -119 -256 -179 -335 -61 -80 -124 -104 -177 -67
-90 62 -181 268 -224 506 -65 350 -92 959 -66 1452 17 310 51 519 80 489 5 -5
61 -162 125 -349z"/>
<path d="M5765 5348 c-16 -6 -46 -22 -65 -37 -104 -77 -143 -180 -159 -426
-14 -221 -51 -374 -123 -520 -69 -139 -184 -264 -296 -323 -31 -16 -146 -62
-255 -101 -706 -256 -1373 -619 -1663 -906 -104 -102 -131 -149 -164 -279 -28
-115 -25 -249 7 -311 44 -84 138 -147 264 -180 82 -22 143 -15 219 26 110 58
203 165 410 469 197 290 274 384 375 456 79 56 134 76 211 76 109 1 152 -43
141 -145 -11 -111 -99 -274 -366 -684 -310 -477 -361 -595 -361 -830 1 -290
134 -489 550 -823 85 -68 236 -197 334 -285 468 -419 588 -508 702 -521 87
-10 121 35 192 256 178 551 368 1612 422 2355 13 183 13 590 -1 713 -5 53 -28
174 -50 267 -92 389 -124 644 -124 1005 0 228 3 292 19 373 36 190 10 334 -68
371 -38 18 -106 20 -151 4z m-1735 -1996 c0 -70 -34 -192 -75 -270 -111 -213
-401 -505 -521 -528 -117 -22 -173 131 -101 277 52 106 189 243 369 372 94 66
305 197 319 197 5 0 9 -22 9 -48z m990 -316 c0 -69 -141 -444 -397 -1056 -197
-471 -338 -634 -457 -530 -89 78 -89 204 0 412 70 165 230 431 409 681 90 127
422 526 438 527 4 0 7 -15 7 -34z m234 -269 c-2 -397 -107 -1058 -225 -1422
-52 -161 -156 -372 -204 -413 -65 -58 -103 -39 -185 89 -108 168 -116 211 -80
389 41 202 155 490 352 890 66 135 161 335 210 445 114 252 107 240 121 226 8
-9 12 -71 11 -204z m426 -111 c37 -182 54 -529 47 -966 -7 -457 -29 -717 -82
-967 -52 -246 -177 -473 -261 -473 -66 0 -122 60 -229 244 -87 151 -95 193
-72 378 35 275 99 506 344 1238 108 322 200 596 205 610 9 24 10 24 23 6 8
-10 19 -42 25 -70z"/>
</g>
</svg>
