<svg xmlns="http://www.w3.org/2000/svg" viewBox="0 0 200 200">           
            <path d="M100,30 C110,20 120,30 120,40 C120,50 110,60 100,60 C90,60 80,50 80,40 C80,30 90,20 100,30 Z" fill="red" />
            <path d="M100,30 C110,20 120,30 120,40 C120,50 110,60 100,60 C90,60 80,50 80,40 C80,30 90,20 100,30" fill="red" transform="rotate(72 100 50)" />
            <path d="M100,30 C110,20 120,30 120,40 C120,50 110,60 100,60 C90,60 80,50 80,40 C80,30 90,20 100,30" fill="red" transform="rotate(144 100 50)" />
            <path d="M100,30 C110,20 120,30 120,40 C120,50 110,60 100,60 C90,60 80,50 80,40 C80,30 90,20 100,30" fill="red" transform="rotate(216 100 50)" />
            <path d="M100,30 C110,20 120,30 120,40 C120,50 110,60 100,60 C90,60 80,50 80,40 C80,30 90,20 100,30" fill="red" transform="rotate(288 100 50)" />
            <circle cx="100" cy="50" r="5" fill="#FFD700" />
        </svg>